<mxfile host="app.diagrams.net" agent="Mozilla/5.0 (Windows NT 10.0; Win64; x64) AppleWebKit/537.36 (KHTML, like Gecko) Chrome/127.0.0.0 Safari/537.36 Edg/127.0.0.0" version="24.7.6">
  <diagram name="Trang-1" id="eQSXx8Grk-f_IwAMM815">
    <mxGraphModel dx="2367" dy="1849" grid="0" gridSize="10" guides="1" tooltips="1" connect="1" arrows="1" fold="1" page="0" pageScale="1" pageWidth="827" pageHeight="1169" background="#000000" math="0" shadow="0">
      <root>
        <mxCell id="0" />
        <mxCell id="1" parent="0" />
        <mxCell id="sYMvWRUio1NoobQAcl4x-3" value="Admin" style="rounded=1;whiteSpace=wrap;html=1;strokeColor=#E8E8E8;fontColor=#FFFFFF;fillColor=#000000;" parent="1" vertex="1">
          <mxGeometry x="621" y="517" width="120" height="60" as="geometry" />
        </mxCell>
        <mxCell id="sYMvWRUio1NoobQAcl4x-5" value="Food" style="rounded=1;whiteSpace=wrap;html=1;strokeColor=#E8E8E8;fontColor=#FFFFFF;fillColor=#000000;" parent="1" vertex="1">
          <mxGeometry x="-189" y="561" width="120" height="60" as="geometry" />
        </mxCell>
        <mxCell id="sYMvWRUio1NoobQAcl4x-6" value="Customer" style="rounded=1;whiteSpace=wrap;html=1;strokeColor=#E8E8E8;fontColor=#FFFFFF;fillColor=#000000;" parent="1" vertex="1">
          <mxGeometry x="97" y="110" width="120" height="60" as="geometry" />
        </mxCell>
        <mxCell id="sYMvWRUio1NoobQAcl4x-7" value="FoodCategory" style="rounded=1;whiteSpace=wrap;html=1;strokeColor=#E8E8E8;fontColor=#FFFFFF;fillColor=#000000;" parent="1" vertex="1">
          <mxGeometry x="-439" y="531" width="120" height="60" as="geometry" />
        </mxCell>
        <mxCell id="sYMvWRUio1NoobQAcl4x-10" value="Order" style="rounded=1;whiteSpace=wrap;html=1;strokeColor=#E8E8E8;fontColor=#FFFFFF;fillColor=#000000;" parent="1" vertex="1">
          <mxGeometry x="253" y="333" width="120" height="60" as="geometry" />
        </mxCell>
        <mxCell id="sYMvWRUio1NoobQAcl4x-11" value="Cart" style="rounded=1;whiteSpace=wrap;html=1;strokeColor=#E8E8E8;fontColor=#FFFFFF;fillColor=#000000;" parent="1" vertex="1">
          <mxGeometry x="-69" y="223" width="120" height="60" as="geometry" />
        </mxCell>
        <mxCell id="WLxla5kFX-Y7wtaZwMnV-1" value="PhoneNumber" style="ellipse;whiteSpace=wrap;html=1;strokeColor=#E8E8E8;fontColor=#FFFFFF;fillColor=#000000;" parent="1" vertex="1">
          <mxGeometry x="621" y="-64" width="120" height="80" as="geometry" />
        </mxCell>
        <mxCell id="WLxla5kFX-Y7wtaZwMnV-2" value="Address" style="ellipse;whiteSpace=wrap;html=1;strokeColor=#E8E8E8;fontColor=#FFFFFF;fillColor=#000000;" parent="1" vertex="1">
          <mxGeometry x="735" y="-15" width="120" height="80" as="geometry" />
        </mxCell>
        <mxCell id="WLxla5kFX-Y7wtaZwMnV-4" value="PassWord" style="ellipse;whiteSpace=wrap;html=1;strokeColor=#E8E8E8;fontColor=#FFFFFF;fillColor=#000000;" parent="1" vertex="1">
          <mxGeometry x="-19" y="-46" width="120" height="80" as="geometry" />
        </mxCell>
        <mxCell id="WLxla5kFX-Y7wtaZwMnV-5" value="UserName" style="ellipse;whiteSpace=wrap;html=1;strokeColor=#E8E8E8;fontColor=#FFFFFF;fillColor=#000000;" parent="1" vertex="1">
          <mxGeometry x="-170" y="-25" width="120" height="80" as="geometry" />
        </mxCell>
        <mxCell id="WLxla5kFX-Y7wtaZwMnV-6" value="CustomerInformation" style="rounded=1;whiteSpace=wrap;html=1;strokeColor=#E8E8E8;fontColor=#FFFFFF;fillColor=#000000;" parent="1" vertex="1">
          <mxGeometry x="490" y="70" width="120" height="60" as="geometry" />
        </mxCell>
        <mxCell id="WLxla5kFX-Y7wtaZwMnV-7" value="Email" style="ellipse;whiteSpace=wrap;html=1;strokeColor=#E8E8E8;fontColor=#FFFFFF;fillColor=#000000;" parent="1" vertex="1">
          <mxGeometry x="121" y="-68" width="120" height="80" as="geometry" />
        </mxCell>
        <mxCell id="WLxla5kFX-Y7wtaZwMnV-8" value="" style="endArrow=none;html=1;rounded=0;exitX=0.5;exitY=1;exitDx=0;exitDy=0;entryX=0;entryY=0;entryDx=0;entryDy=0;strokeColor=#F5F5F5;fontColor=#050505;" parent="1" source="WLxla5kFX-Y7wtaZwMnV-5" target="sYMvWRUio1NoobQAcl4x-6" edge="1">
          <mxGeometry width="50" height="50" relative="1" as="geometry">
            <mxPoint x="260" y="70" as="sourcePoint" />
            <mxPoint x="190" y="100" as="targetPoint" />
          </mxGeometry>
        </mxCell>
        <mxCell id="WLxla5kFX-Y7wtaZwMnV-9" value="" style="endArrow=none;html=1;rounded=0;entryX=0.5;entryY=1;entryDx=0;entryDy=0;exitX=0.5;exitY=0;exitDx=0;exitDy=0;strokeColor=#F5F5F5;fontColor=#050505;" parent="1" source="sYMvWRUio1NoobQAcl4x-6" target="WLxla5kFX-Y7wtaZwMnV-4" edge="1">
          <mxGeometry width="50" height="50" relative="1" as="geometry">
            <mxPoint x="330" y="90" as="sourcePoint" />
            <mxPoint x="380" y="40" as="targetPoint" />
          </mxGeometry>
        </mxCell>
        <mxCell id="WLxla5kFX-Y7wtaZwMnV-10" value="" style="endArrow=none;html=1;rounded=0;entryX=0.5;entryY=1;entryDx=0;entryDy=0;exitX=1;exitY=0;exitDx=0;exitDy=0;strokeColor=#F5F5F5;fontColor=#050505;" parent="1" source="sYMvWRUio1NoobQAcl4x-6" target="WLxla5kFX-Y7wtaZwMnV-7" edge="1">
          <mxGeometry width="50" height="50" relative="1" as="geometry">
            <mxPoint x="420" y="220" as="sourcePoint" />
            <mxPoint x="470" y="170" as="targetPoint" />
          </mxGeometry>
        </mxCell>
        <mxCell id="WLxla5kFX-Y7wtaZwMnV-11" value="" style="endArrow=none;html=1;rounded=0;entryX=0.5;entryY=1;entryDx=0;entryDy=0;exitX=0.5;exitY=0;exitDx=0;exitDy=0;strokeColor=#F5F5F5;fontColor=#050505;" parent="1" source="WLxla5kFX-Y7wtaZwMnV-6" target="WLxla5kFX-Y7wtaZwMnV-1" edge="1">
          <mxGeometry width="50" height="50" relative="1" as="geometry">
            <mxPoint x="530" y="210" as="sourcePoint" />
            <mxPoint x="580" y="160" as="targetPoint" />
          </mxGeometry>
        </mxCell>
        <mxCell id="WLxla5kFX-Y7wtaZwMnV-12" value="" style="endArrow=none;html=1;rounded=0;exitX=1;exitY=0.5;exitDx=0;exitDy=0;entryX=0;entryY=1;entryDx=0;entryDy=0;strokeColor=#F5F5F5;fontColor=#050505;" parent="1" source="WLxla5kFX-Y7wtaZwMnV-6" target="WLxla5kFX-Y7wtaZwMnV-2" edge="1">
          <mxGeometry width="50" height="50" relative="1" as="geometry">
            <mxPoint x="540" y="260" as="sourcePoint" />
            <mxPoint x="590" y="210" as="targetPoint" />
          </mxGeometry>
        </mxCell>
        <mxCell id="WLxla5kFX-Y7wtaZwMnV-14" value="Id" style="ellipse;whiteSpace=wrap;html=1;strokeColor=#E8E8E8;fontColor=#FFFFFF;fillColor=#000000;" parent="1" vertex="1">
          <mxGeometry x="833" y="87" width="120" height="80" as="geometry" />
        </mxCell>
        <mxCell id="WLxla5kFX-Y7wtaZwMnV-15" value="" style="endArrow=none;html=1;rounded=0;exitX=1;exitY=1;exitDx=0;exitDy=0;entryX=0;entryY=0.5;entryDx=0;entryDy=0;strokeColor=#F5F5F5;fontColor=#050505;" parent="1" source="WLxla5kFX-Y7wtaZwMnV-6" target="WLxla5kFX-Y7wtaZwMnV-14" edge="1">
          <mxGeometry width="50" height="50" relative="1" as="geometry">
            <mxPoint x="450" y="240" as="sourcePoint" />
            <mxPoint x="500" y="190" as="targetPoint" />
          </mxGeometry>
        </mxCell>
        <mxCell id="WLxla5kFX-Y7wtaZwMnV-16" value="" style="endArrow=none;html=1;rounded=0;exitX=1;exitY=0.5;exitDx=0;exitDy=0;entryX=0;entryY=0.5;entryDx=0;entryDy=0;strokeColor=#F5F5F5;fontColor=#050505;" parent="1" source="sYMvWRUio1NoobQAcl4x-6" target="WLxla5kFX-Y7wtaZwMnV-6" edge="1">
          <mxGeometry width="50" height="50" relative="1" as="geometry">
            <mxPoint x="400" y="260" as="sourcePoint" />
            <mxPoint x="450" y="210" as="targetPoint" />
          </mxGeometry>
        </mxCell>
        <mxCell id="WLxla5kFX-Y7wtaZwMnV-19" value="" style="endArrow=none;html=1;rounded=0;entryX=1;entryY=1;entryDx=0;entryDy=0;exitX=0.5;exitY=0;exitDx=0;exitDy=0;strokeColor=#F5F5F5;fontColor=#050505;" parent="1" source="sYMvWRUio1NoobQAcl4x-3" target="sYMvWRUio1NoobQAcl4x-6" edge="1">
          <mxGeometry width="50" height="50" relative="1" as="geometry">
            <mxPoint x="300" y="320" as="sourcePoint" />
            <mxPoint x="350" y="270" as="targetPoint" />
          </mxGeometry>
        </mxCell>
        <mxCell id="WLxla5kFX-Y7wtaZwMnV-20" value="" style="endArrow=none;html=1;rounded=0;exitX=1;exitY=0.5;exitDx=0;exitDy=0;entryX=0;entryY=0.25;entryDx=0;entryDy=0;strokeColor=#F5F5F5;fontColor=#050505;" parent="1" source="sYMvWRUio1NoobQAcl4x-7" target="sYMvWRUio1NoobQAcl4x-5" edge="1">
          <mxGeometry width="50" height="50" relative="1" as="geometry">
            <mxPoint x="-239" y="841" as="sourcePoint" />
            <mxPoint x="-189" y="791" as="targetPoint" />
          </mxGeometry>
        </mxCell>
        <mxCell id="WLxla5kFX-Y7wtaZwMnV-24" value="" style="endArrow=none;html=1;rounded=0;exitX=0.25;exitY=1;exitDx=0;exitDy=0;entryX=0.5;entryY=0;entryDx=0;entryDy=0;strokeColor=#F5F5F5;fontColor=#050505;" parent="1" source="sYMvWRUio1NoobQAcl4x-6" target="sYMvWRUio1NoobQAcl4x-11" edge="1">
          <mxGeometry width="50" height="50" relative="1" as="geometry">
            <mxPoint x="260" y="320" as="sourcePoint" />
            <mxPoint x="310" y="270" as="targetPoint" />
          </mxGeometry>
        </mxCell>
        <mxCell id="WLxla5kFX-Y7wtaZwMnV-25" value="" style="endArrow=none;html=1;rounded=0;exitX=0.5;exitY=0;exitDx=0;exitDy=0;entryX=0.75;entryY=1;entryDx=0;entryDy=0;strokeColor=#F5F5F5;fontColor=#050505;" parent="1" source="sYMvWRUio1NoobQAcl4x-10" target="sYMvWRUio1NoobQAcl4x-6" edge="1">
          <mxGeometry width="50" height="50" relative="1" as="geometry">
            <mxPoint x="220" y="330" as="sourcePoint" />
            <mxPoint x="320" y="160" as="targetPoint" />
          </mxGeometry>
        </mxCell>
        <mxCell id="WLxla5kFX-Y7wtaZwMnV-46" value="Code" style="ellipse;whiteSpace=wrap;html=1;strokeColor=#E8E8E8;fontColor=#FFFFFF;fillColor=#000000;" parent="1" vertex="1">
          <mxGeometry x="-592" y="397" width="120" height="80" as="geometry" />
        </mxCell>
        <mxCell id="WLxla5kFX-Y7wtaZwMnV-47" value="" style="endArrow=none;html=1;rounded=0;exitX=0;exitY=0;exitDx=0;exitDy=0;entryX=0.5;entryY=1;entryDx=0;entryDy=0;strokeColor=#F5F5F5;fontColor=#050505;" parent="1" source="sYMvWRUio1NoobQAcl4x-7" target="WLxla5kFX-Y7wtaZwMnV-46" edge="1">
          <mxGeometry width="50" height="50" relative="1" as="geometry">
            <mxPoint x="-559" y="631" as="sourcePoint" />
            <mxPoint x="-478.9999999999932" y="461" as="targetPoint" />
          </mxGeometry>
        </mxCell>
        <mxCell id="WLxla5kFX-Y7wtaZwMnV-48" value="CategoryName" style="ellipse;whiteSpace=wrap;html=1;strokeColor=#E8E8E8;fontColor=#FFFFFF;fillColor=#000000;" parent="1" vertex="1">
          <mxGeometry x="-609" y="531" width="120" height="80" as="geometry" />
        </mxCell>
        <mxCell id="WLxla5kFX-Y7wtaZwMnV-49" value="" style="endArrow=none;html=1;rounded=0;exitX=0;exitY=0.5;exitDx=0;exitDy=0;entryX=1;entryY=0.5;entryDx=0;entryDy=0;strokeColor=#F5F5F5;fontColor=#050505;" parent="1" source="sYMvWRUio1NoobQAcl4x-7" target="WLxla5kFX-Y7wtaZwMnV-48" edge="1">
          <mxGeometry width="50" height="50" relative="1" as="geometry">
            <mxPoint x="-689" y="531" as="sourcePoint" />
            <mxPoint x="-639" y="481" as="targetPoint" />
          </mxGeometry>
        </mxCell>
        <mxCell id="WLxla5kFX-Y7wtaZwMnV-54" value="Code" style="ellipse;whiteSpace=wrap;html=1;strokeColor=#E8E8E8;fontColor=#FFFFFF;fillColor=#000000;" parent="1" vertex="1">
          <mxGeometry x="-530" y="762" width="120" height="80" as="geometry" />
        </mxCell>
        <mxCell id="WLxla5kFX-Y7wtaZwMnV-55" value="FoodName" style="ellipse;whiteSpace=wrap;html=1;strokeColor=#E8E8E8;fontColor=#FFFFFF;fillColor=#000000;" parent="1" vertex="1">
          <mxGeometry x="-384" y="764" width="120" height="80" as="geometry" />
        </mxCell>
        <mxCell id="WLxla5kFX-Y7wtaZwMnV-56" value="Image" style="ellipse;whiteSpace=wrap;html=1;strokeColor=#E8E8E8;fontColor=#FFFFFF;fillColor=#000000;" parent="1" vertex="1">
          <mxGeometry x="137" y="864" width="120" height="80" as="geometry" />
        </mxCell>
        <mxCell id="WLxla5kFX-Y7wtaZwMnV-57" value="PreviousPrice" style="ellipse;whiteSpace=wrap;html=1;strokeColor=#E8E8E8;fontColor=#FFFFFF;fillColor=#000000;" parent="1" vertex="1">
          <mxGeometry x="-210" y="809" width="120" height="80" as="geometry" />
        </mxCell>
        <mxCell id="WLxla5kFX-Y7wtaZwMnV-58" value="CurrentPrice" style="ellipse;whiteSpace=wrap;html=1;strokeColor=#E8E8E8;fontColor=#FFFFFF;fillColor=#000000;" parent="1" vertex="1">
          <mxGeometry x="-345" y="893" width="120" height="80" as="geometry" />
        </mxCell>
        <mxCell id="WLxla5kFX-Y7wtaZwMnV-59" value="" style="endArrow=none;html=1;rounded=0;entryX=0.25;entryY=1;entryDx=0;entryDy=0;exitX=0.5;exitY=0;exitDx=0;exitDy=0;strokeColor=#F5F5F5;fontColor=#050505;" parent="1" source="WLxla5kFX-Y7wtaZwMnV-54" target="sYMvWRUio1NoobQAcl4x-5" edge="1">
          <mxGeometry width="50" height="50" relative="1" as="geometry">
            <mxPoint x="-170" y="744" as="sourcePoint" />
            <mxPoint x="-120" y="694" as="targetPoint" />
          </mxGeometry>
        </mxCell>
        <mxCell id="WLxla5kFX-Y7wtaZwMnV-60" value="" style="endArrow=none;html=1;rounded=0;entryX=0.5;entryY=1;entryDx=0;entryDy=0;exitX=0.5;exitY=0;exitDx=0;exitDy=0;strokeColor=#F5F5F5;fontColor=#050505;" parent="1" source="WLxla5kFX-Y7wtaZwMnV-55" target="sYMvWRUio1NoobQAcl4x-5" edge="1">
          <mxGeometry width="50" height="50" relative="1" as="geometry">
            <mxPoint x="-170" y="729" as="sourcePoint" />
            <mxPoint x="-120" y="679" as="targetPoint" />
          </mxGeometry>
        </mxCell>
        <mxCell id="WLxla5kFX-Y7wtaZwMnV-61" value="" style="endArrow=none;html=1;rounded=0;entryX=0.75;entryY=1;entryDx=0;entryDy=0;exitX=0.5;exitY=0;exitDx=0;exitDy=0;strokeColor=#F5F5F5;fontColor=#050505;" parent="1" source="WLxla5kFX-Y7wtaZwMnV-58" target="sYMvWRUio1NoobQAcl4x-5" edge="1">
          <mxGeometry width="50" height="50" relative="1" as="geometry">
            <mxPoint x="-112" y="738" as="sourcePoint" />
            <mxPoint x="-62" y="688" as="targetPoint" />
          </mxGeometry>
        </mxCell>
        <mxCell id="WLxla5kFX-Y7wtaZwMnV-62" value="" style="endArrow=none;html=1;rounded=0;exitX=0.75;exitY=1;exitDx=0;exitDy=0;entryX=0.5;entryY=0;entryDx=0;entryDy=0;strokeColor=#F5F5F5;fontColor=#050505;" parent="1" source="sYMvWRUio1NoobQAcl4x-5" target="WLxla5kFX-Y7wtaZwMnV-57" edge="1">
          <mxGeometry width="50" height="50" relative="1" as="geometry">
            <mxPoint x="-24" y="686" as="sourcePoint" />
            <mxPoint x="26" y="636" as="targetPoint" />
          </mxGeometry>
        </mxCell>
        <mxCell id="WLxla5kFX-Y7wtaZwMnV-63" value="" style="endArrow=none;html=1;rounded=0;exitX=1;exitY=0.75;exitDx=0;exitDy=0;entryX=0.5;entryY=0;entryDx=0;entryDy=0;strokeColor=#F5F5F5;fontColor=#050505;" parent="1" source="sYMvWRUio1NoobQAcl4x-5" target="WLxla5kFX-Y7wtaZwMnV-56" edge="1">
          <mxGeometry width="50" height="50" relative="1" as="geometry">
            <mxPoint x="27" y="683" as="sourcePoint" />
            <mxPoint x="173.5735931288068" y="883.7157287525379" as="targetPoint" />
          </mxGeometry>
        </mxCell>
        <mxCell id="WLxla5kFX-Y7wtaZwMnV-64" value="Left" style="ellipse;whiteSpace=wrap;html=1;strokeColor=#E8E8E8;fontColor=#FFFFFF;fillColor=#000000;" parent="1" vertex="1">
          <mxGeometry x="-104" y="904" width="120" height="80" as="geometry" />
        </mxCell>
        <mxCell id="WLxla5kFX-Y7wtaZwMnV-65" value="" style="endArrow=none;html=1;rounded=0;entryX=1;entryY=1;entryDx=0;entryDy=0;exitX=0.5;exitY=0;exitDx=0;exitDy=0;strokeColor=#F5F5F5;fontColor=#050505;" parent="1" source="WLxla5kFX-Y7wtaZwMnV-64" target="sYMvWRUio1NoobQAcl4x-5" edge="1">
          <mxGeometry width="50" height="50" relative="1" as="geometry">
            <mxPoint x="-66" y="783" as="sourcePoint" />
            <mxPoint x="-16" y="733" as="targetPoint" />
          </mxGeometry>
        </mxCell>
        <mxCell id="WLxla5kFX-Y7wtaZwMnV-66" value="Sold" style="ellipse;whiteSpace=wrap;html=1;strokeColor=#E8E8E8;fontColor=#FFFFFF;fillColor=#000000;" parent="1" vertex="1">
          <mxGeometry x="13" y="844" width="120" height="80" as="geometry" />
        </mxCell>
        <mxCell id="WLxla5kFX-Y7wtaZwMnV-67" value="" style="endArrow=none;html=1;rounded=0;entryX=0;entryY=0;entryDx=0;entryDy=0;exitX=1;exitY=1;exitDx=0;exitDy=0;strokeColor=#F5F5F5;fontColor=#050505;" parent="1" source="sYMvWRUio1NoobQAcl4x-5" target="WLxla5kFX-Y7wtaZwMnV-66" edge="1">
          <mxGeometry width="50" height="50" relative="1" as="geometry">
            <mxPoint x="-55" y="638" as="sourcePoint" />
            <mxPoint x="138" y="683" as="targetPoint" />
          </mxGeometry>
        </mxCell>
        <mxCell id="WLxla5kFX-Y7wtaZwMnV-68" value="Email" style="ellipse;whiteSpace=wrap;html=1;strokeColor=#E8E8E8;fontColor=#FFFFFF;fillColor=#000000;" parent="1" vertex="1">
          <mxGeometry x="873" y="475" width="120" height="80" as="geometry" />
        </mxCell>
        <mxCell id="WLxla5kFX-Y7wtaZwMnV-69" value="Password" style="ellipse;whiteSpace=wrap;html=1;strokeColor=#E8E8E8;fontColor=#FFFFFF;fillColor=#000000;" parent="1" vertex="1">
          <mxGeometry x="855" y="585" width="120" height="80" as="geometry" />
        </mxCell>
        <mxCell id="WLxla5kFX-Y7wtaZwMnV-70" value="" style="endArrow=none;html=1;rounded=0;entryX=1;entryY=0.5;entryDx=0;entryDy=0;exitX=0;exitY=0.5;exitDx=0;exitDy=0;strokeColor=#F5F5F5;fontColor=#050505;" parent="1" source="WLxla5kFX-Y7wtaZwMnV-68" target="sYMvWRUio1NoobQAcl4x-3" edge="1">
          <mxGeometry width="50" height="50" relative="1" as="geometry">
            <mxPoint x="670" y="519" as="sourcePoint" />
            <mxPoint x="720" y="469" as="targetPoint" />
          </mxGeometry>
        </mxCell>
        <mxCell id="WLxla5kFX-Y7wtaZwMnV-71" value="" style="endArrow=none;html=1;rounded=0;entryX=1;entryY=1;entryDx=0;entryDy=0;exitX=0;exitY=0;exitDx=0;exitDy=0;strokeColor=#F5F5F5;fontColor=#050505;" parent="1" source="WLxla5kFX-Y7wtaZwMnV-69" target="sYMvWRUio1NoobQAcl4x-3" edge="1">
          <mxGeometry width="50" height="50" relative="1" as="geometry">
            <mxPoint x="695" y="514" as="sourcePoint" />
            <mxPoint x="745" y="464" as="targetPoint" />
          </mxGeometry>
        </mxCell>
        <mxCell id="WLxla5kFX-Y7wtaZwMnV-72" value="" style="endArrow=none;html=1;rounded=0;exitX=1;exitY=0.5;exitDx=0;exitDy=0;entryX=0;entryY=0.5;entryDx=0;entryDy=0;strokeColor=#F5F5F5;fontColor=#050505;" parent="1" source="sYMvWRUio1NoobQAcl4x-5" target="sYMvWRUio1NoobQAcl4x-3" edge="1">
          <mxGeometry width="50" height="50" relative="1" as="geometry">
            <mxPoint x="422" y="518" as="sourcePoint" />
            <mxPoint x="472" y="468" as="targetPoint" />
          </mxGeometry>
        </mxCell>
        <mxCell id="WLxla5kFX-Y7wtaZwMnV-73" value="CreatedDate" style="ellipse;whiteSpace=wrap;html=1;strokeColor=#E8E8E8;fontColor=#FFFFFF;fillColor=#000000;" parent="1" vertex="1">
          <mxGeometry x="789" y="388" width="120" height="80" as="geometry" />
        </mxCell>
        <mxCell id="WLxla5kFX-Y7wtaZwMnV-74" value="" style="endArrow=none;html=1;rounded=0;entryX=0;entryY=1;entryDx=0;entryDy=0;exitX=1;exitY=0;exitDx=0;exitDy=0;strokeColor=#F5F5F5;fontColor=#050505;" parent="1" source="sYMvWRUio1NoobQAcl4x-3" target="WLxla5kFX-Y7wtaZwMnV-73" edge="1">
          <mxGeometry width="50" height="50" relative="1" as="geometry">
            <mxPoint x="722" y="668" as="sourcePoint" />
            <mxPoint x="772" y="618" as="targetPoint" />
          </mxGeometry>
        </mxCell>
        <mxCell id="WLxla5kFX-Y7wtaZwMnV-75" value="IsOnl" style="ellipse;whiteSpace=wrap;html=1;strokeColor=#E8E8E8;fontColor=#FFFFFF;fillColor=#000000;" parent="1" vertex="1">
          <mxGeometry x="750" y="669" width="120" height="80" as="geometry" />
        </mxCell>
        <mxCell id="WLxla5kFX-Y7wtaZwMnV-76" value="" style="endArrow=none;html=1;rounded=0;entryX=0.75;entryY=1;entryDx=0;entryDy=0;exitX=0.5;exitY=0;exitDx=0;exitDy=0;strokeColor=#F5F5F5;fontColor=#050505;" parent="1" source="WLxla5kFX-Y7wtaZwMnV-75" target="sYMvWRUio1NoobQAcl4x-3" edge="1">
          <mxGeometry width="50" height="50" relative="1" as="geometry">
            <mxPoint x="678" y="674" as="sourcePoint" />
            <mxPoint x="728" y="624" as="targetPoint" />
          </mxGeometry>
        </mxCell>
        <mxCell id="WLxla5kFX-Y7wtaZwMnV-77" value="Id" style="ellipse;whiteSpace=wrap;html=1;strokeColor=#E8E8E8;fontColor=#FFFFFF;fillColor=#000000;" parent="1" vertex="1">
          <mxGeometry x="-272" y="97" width="120" height="80" as="geometry" />
        </mxCell>
        <mxCell id="WLxla5kFX-Y7wtaZwMnV-78" value="" style="endArrow=none;html=1;rounded=0;entryX=0.25;entryY=0;entryDx=0;entryDy=0;exitX=1;exitY=1;exitDx=0;exitDy=0;strokeColor=#F5F5F5;fontColor=#050505;" parent="1" source="WLxla5kFX-Y7wtaZwMnV-77" target="sYMvWRUio1NoobQAcl4x-11" edge="1">
          <mxGeometry width="50" height="50" relative="1" as="geometry">
            <mxPoint x="101" y="389" as="sourcePoint" />
            <mxPoint x="151" y="339" as="targetPoint" />
          </mxGeometry>
        </mxCell>
        <mxCell id="WLxla5kFX-Y7wtaZwMnV-79" value="" style="endArrow=none;html=1;rounded=0;entryX=0.5;entryY=1;entryDx=0;entryDy=0;exitX=0.25;exitY=0;exitDx=0;exitDy=0;strokeColor=#F5F5F5;fontColor=#050505;" parent="1" source="sYMvWRUio1NoobQAcl4x-5" target="9NP187cMQNup14RrDcQG-1" edge="1">
          <mxGeometry width="50" height="50" relative="1" as="geometry">
            <mxPoint x="75" y="459" as="sourcePoint" />
            <mxPoint x="125" y="409" as="targetPoint" />
          </mxGeometry>
        </mxCell>
        <mxCell id="WLxla5kFX-Y7wtaZwMnV-80" value="" style="endArrow=none;html=1;rounded=0;entryX=0.5;entryY=1;entryDx=0;entryDy=0;exitX=0.5;exitY=0;exitDx=0;exitDy=0;strokeColor=#F5F5F5;fontColor=#050505;" parent="1" source="WLxla5kFX-Y7wtaZwMnV-81" target="sYMvWRUio1NoobQAcl4x-10" edge="1">
          <mxGeometry width="50" height="50" relative="1" as="geometry">
            <mxPoint x="385" y="444" as="sourcePoint" />
            <mxPoint x="431" y="443" as="targetPoint" />
          </mxGeometry>
        </mxCell>
        <mxCell id="WLxla5kFX-Y7wtaZwMnV-81" value="Code" style="ellipse;whiteSpace=wrap;html=1;strokeColor=#E8E8E8;fontColor=#FFFFFF;fillColor=#000000;" parent="1" vertex="1">
          <mxGeometry x="424" y="449" width="120" height="80" as="geometry" />
        </mxCell>
        <mxCell id="WLxla5kFX-Y7wtaZwMnV-82" value="OrderItem" style="rounded=1;whiteSpace=wrap;html=1;strokeColor=#E8E8E8;fontColor=#FFFFFF;fillColor=#000000;" parent="1" vertex="1">
          <mxGeometry x="294" y="591" width="120" height="60" as="geometry" />
        </mxCell>
        <mxCell id="WLxla5kFX-Y7wtaZwMnV-83" value="Id" style="ellipse;whiteSpace=wrap;html=1;strokeColor=#E8E8E8;fontColor=#FFFFFF;fillColor=#000000;" parent="1" vertex="1">
          <mxGeometry x="272" y="711" width="120" height="80" as="geometry" />
        </mxCell>
        <mxCell id="WLxla5kFX-Y7wtaZwMnV-84" value="Quantity" style="ellipse;whiteSpace=wrap;html=1;strokeColor=#E8E8E8;fontColor=#FFFFFF;fillColor=#000000;" parent="1" vertex="1">
          <mxGeometry x="430" y="673" width="120" height="80" as="geometry" />
        </mxCell>
        <mxCell id="WLxla5kFX-Y7wtaZwMnV-85" value="" style="endArrow=none;html=1;rounded=0;entryX=0.25;entryY=1;entryDx=0;entryDy=0;exitX=0.5;exitY=0;exitDx=0;exitDy=0;strokeColor=#F5F5F5;fontColor=#050505;" parent="1" source="WLxla5kFX-Y7wtaZwMnV-83" target="WLxla5kFX-Y7wtaZwMnV-82" edge="1">
          <mxGeometry width="50" height="50" relative="1" as="geometry">
            <mxPoint x="197" y="698" as="sourcePoint" />
            <mxPoint x="247" y="648" as="targetPoint" />
          </mxGeometry>
        </mxCell>
        <mxCell id="WLxla5kFX-Y7wtaZwMnV-86" value="" style="endArrow=none;html=1;rounded=0;exitX=1;exitY=1;exitDx=0;exitDy=0;strokeColor=#F5F5F5;fontColor=#050505;" parent="1" source="WLxla5kFX-Y7wtaZwMnV-82" target="WLxla5kFX-Y7wtaZwMnV-84" edge="1">
          <mxGeometry width="50" height="50" relative="1" as="geometry">
            <mxPoint x="450" y="661" as="sourcePoint" />
            <mxPoint x="500" y="611" as="targetPoint" />
          </mxGeometry>
        </mxCell>
        <mxCell id="WLxla5kFX-Y7wtaZwMnV-87" value="" style="endArrow=none;html=1;rounded=0;exitX=1;exitY=0.75;exitDx=0;exitDy=0;entryX=0;entryY=0.5;entryDx=0;entryDy=0;strokeColor=#F5F5F5;fontColor=#050505;" parent="1" source="sYMvWRUio1NoobQAcl4x-5" target="WLxla5kFX-Y7wtaZwMnV-82" edge="1">
          <mxGeometry width="50" height="50" relative="1" as="geometry">
            <mxPoint x="146" y="683" as="sourcePoint" />
            <mxPoint x="196" y="633" as="targetPoint" />
          </mxGeometry>
        </mxCell>
        <mxCell id="WLxla5kFX-Y7wtaZwMnV-88" value="" style="endArrow=none;html=1;rounded=0;entryX=0;entryY=1;entryDx=0;entryDy=0;exitX=0.5;exitY=0;exitDx=0;exitDy=0;strokeColor=#F5F5F5;fontColor=#050505;" parent="1" source="WLxla5kFX-Y7wtaZwMnV-82" target="sYMvWRUio1NoobQAcl4x-10" edge="1">
          <mxGeometry width="50" height="50" relative="1" as="geometry">
            <mxPoint x="328" y="537" as="sourcePoint" />
            <mxPoint x="378" y="487" as="targetPoint" />
          </mxGeometry>
        </mxCell>
        <mxCell id="WLxla5kFX-Y7wtaZwMnV-89" value="UnitPrice" style="ellipse;whiteSpace=wrap;html=1;strokeColor=#E8E8E8;fontColor=#FFFFFF;fillColor=#000000;" parent="1" vertex="1">
          <mxGeometry x="143" y="665" width="120" height="80" as="geometry" />
        </mxCell>
        <mxCell id="WLxla5kFX-Y7wtaZwMnV-90" value="" style="endArrow=none;html=1;rounded=0;entryX=0;entryY=1;entryDx=0;entryDy=0;exitX=1;exitY=0;exitDx=0;exitDy=0;strokeColor=#F5F5F5;fontColor=#050505;" parent="1" source="WLxla5kFX-Y7wtaZwMnV-89" target="WLxla5kFX-Y7wtaZwMnV-82" edge="1">
          <mxGeometry width="50" height="50" relative="1" as="geometry">
            <mxPoint x="144" y="672" as="sourcePoint" />
            <mxPoint x="194" y="622" as="targetPoint" />
          </mxGeometry>
        </mxCell>
        <mxCell id="WLxla5kFX-Y7wtaZwMnV-91" value="OrderDate" style="ellipse;whiteSpace=wrap;html=1;strokeColor=#E8E8E8;fontColor=#FFFFFF;fillColor=#000000;" parent="1" vertex="1">
          <mxGeometry x="553" y="273" width="120" height="80" as="geometry" />
        </mxCell>
        <mxCell id="WLxla5kFX-Y7wtaZwMnV-92" value="" style="endArrow=none;html=1;rounded=0;exitX=1;exitY=0.5;exitDx=0;exitDy=0;entryX=0;entryY=0;entryDx=0;entryDy=0;strokeColor=#F5F5F5;fontColor=#050505;" parent="1" source="sYMvWRUio1NoobQAcl4x-10" target="WLxla5kFX-Y7wtaZwMnV-91" edge="1">
          <mxGeometry width="50" height="50" relative="1" as="geometry">
            <mxPoint x="588" y="346" as="sourcePoint" />
            <mxPoint x="638" y="296" as="targetPoint" />
          </mxGeometry>
        </mxCell>
        <mxCell id="9NP187cMQNup14RrDcQG-1" value="CartItem" style="rounded=1;whiteSpace=wrap;html=1;strokeColor=#E8E8E8;fontColor=#FFFFFF;fillColor=#000000;" parent="1" vertex="1">
          <mxGeometry x="-247" y="313" width="120" height="60" as="geometry" />
        </mxCell>
        <mxCell id="9NP187cMQNup14RrDcQG-2" value="" style="endArrow=none;html=1;rounded=0;entryX=0;entryY=0.5;entryDx=0;entryDy=0;exitX=1;exitY=0.5;exitDx=0;exitDy=0;strokeColor=#F5F5F5;fontColor=#050505;" parent="1" source="9NP187cMQNup14RrDcQG-1" target="sYMvWRUio1NoobQAcl4x-11" edge="1">
          <mxGeometry width="50" height="50" relative="1" as="geometry">
            <mxPoint x="-56" y="377" as="sourcePoint" />
            <mxPoint x="-6" y="327" as="targetPoint" />
          </mxGeometry>
        </mxCell>
        <mxCell id="9NP187cMQNup14RrDcQG-5" value="" style="endArrow=none;html=1;rounded=0;entryX=0;entryY=1;entryDx=0;entryDy=0;exitX=0.5;exitY=0;exitDx=0;exitDy=0;strokeColor=#F5F5F5;fontColor=#050505;" parent="1" source="sYMvWRUio1NoobQAcl4x-7" target="9NP187cMQNup14RrDcQG-1" edge="1">
          <mxGeometry width="50" height="50" relative="1" as="geometry">
            <mxPoint x="-383" y="447" as="sourcePoint" />
            <mxPoint x="-333" y="397" as="targetPoint" />
          </mxGeometry>
        </mxCell>
        <mxCell id="9NP187cMQNup14RrDcQG-6" value="Quantity" style="ellipse;whiteSpace=wrap;html=1;strokeColor=#E8E8E8;fontColor=#FFFFFF;fillColor=#000000;" parent="1" vertex="1">
          <mxGeometry x="-388" y="250" width="120" height="80" as="geometry" />
        </mxCell>
        <mxCell id="9NP187cMQNup14RrDcQG-7" value="" style="endArrow=none;html=1;rounded=0;entryX=0;entryY=0;entryDx=0;entryDy=0;exitX=1;exitY=0.5;exitDx=0;exitDy=0;strokeColor=#F5F5F5;fontColor=#050505;" parent="1" source="9NP187cMQNup14RrDcQG-6" target="9NP187cMQNup14RrDcQG-1" edge="1">
          <mxGeometry width="50" height="50" relative="1" as="geometry">
            <mxPoint x="-311" y="407" as="sourcePoint" />
            <mxPoint x="-261" y="357" as="targetPoint" />
          </mxGeometry>
        </mxCell>
        <mxCell id="9NP187cMQNup14RrDcQG-8" value="Id" style="ellipse;whiteSpace=wrap;html=1;strokeColor=#E8E8E8;fontColor=#FFFFFF;fillColor=#000000;" parent="1" vertex="1">
          <mxGeometry x="-455" y="346" width="120" height="80" as="geometry" />
        </mxCell>
        <mxCell id="9NP187cMQNup14RrDcQG-9" value="" style="endArrow=none;html=1;rounded=0;entryX=0;entryY=0.5;entryDx=0;entryDy=0;exitX=1;exitY=0.5;exitDx=0;exitDy=0;strokeColor=#F5F5F5;fontColor=#050505;" parent="1" source="9NP187cMQNup14RrDcQG-8" target="9NP187cMQNup14RrDcQG-1" edge="1">
          <mxGeometry width="50" height="50" relative="1" as="geometry">
            <mxPoint x="-463" y="353" as="sourcePoint" />
            <mxPoint x="-413" y="303" as="targetPoint" />
          </mxGeometry>
        </mxCell>
        <mxCell id="t15vQ16V7PW18Sh4I3XP-1" value="Admin" style="shape=table;startSize=30;container=1;collapsible=1;childLayout=tableLayout;fixedRows=1;rowLines=0;fontStyle=1;align=center;resizeLast=1;html=1;whiteSpace=wrap;labelBackgroundColor=none;fontColor=#FFFFFF;fillColor=#050505;strokeColor=#FFFFFF;" parent="1" vertex="1">
          <mxGeometry x="-532" y="1298" width="180" height="210" as="geometry" />
        </mxCell>
        <mxCell id="t15vQ16V7PW18Sh4I3XP-2" value="" style="shape=tableRow;horizontal=0;startSize=0;swimlaneHead=0;swimlaneBody=0;collapsible=0;dropTarget=0;points=[[0,0.5],[1,0.5]];portConstraint=eastwest;top=0;left=0;right=0;bottom=0;html=1;labelBackgroundColor=none;fontColor=#FFFFFF;fillColor=#FFFFFF;strokeColor=#FFFFFF;" parent="t15vQ16V7PW18Sh4I3XP-1" vertex="1">
          <mxGeometry y="30" width="180" height="30" as="geometry" />
        </mxCell>
        <mxCell id="t15vQ16V7PW18Sh4I3XP-3" value="PK" style="shape=partialRectangle;connectable=0;top=0;left=0;bottom=0;right=0;fontStyle=1;overflow=hidden;html=1;whiteSpace=wrap;labelBackgroundColor=none;fontColor=#FFFFFF;strokeColor=#FFFFFF;fillColor=#000000;" parent="t15vQ16V7PW18Sh4I3XP-2" vertex="1">
          <mxGeometry width="60" height="30" as="geometry">
            <mxRectangle width="60" height="30" as="alternateBounds" />
          </mxGeometry>
        </mxCell>
        <mxCell id="t15vQ16V7PW18Sh4I3XP-4" value="AdminCode" style="shape=partialRectangle;connectable=0;top=0;left=0;bottom=0;right=0;align=left;spacingLeft=6;fontStyle=5;overflow=hidden;html=1;whiteSpace=wrap;labelBackgroundColor=none;fontColor=#FFFFFF;fillColor=#000000;" parent="t15vQ16V7PW18Sh4I3XP-2" vertex="1">
          <mxGeometry x="60" width="120" height="30" as="geometry">
            <mxRectangle width="120" height="30" as="alternateBounds" />
          </mxGeometry>
        </mxCell>
        <mxCell id="Yrbs_nEvOQBKr78tdkim-1" value="" style="shape=tableRow;horizontal=0;startSize=0;swimlaneHead=0;swimlaneBody=0;collapsible=0;dropTarget=0;points=[[0,0.5],[1,0.5]];portConstraint=eastwest;top=0;left=0;right=0;bottom=0;labelBackgroundColor=none;fontColor=#FFFFFF;strokeColor=#FFFFFF;" parent="t15vQ16V7PW18Sh4I3XP-1" vertex="1">
          <mxGeometry y="60" width="180" height="30" as="geometry" />
        </mxCell>
        <mxCell id="Yrbs_nEvOQBKr78tdkim-2" value="" style="shape=partialRectangle;connectable=0;top=0;left=0;bottom=0;right=0;fontStyle=0;overflow=hidden;whiteSpace=wrap;html=1;labelBackgroundColor=none;fontColor=#FFFFFF;strokeColor=#FFFFFF;fillColor=#000000;" parent="Yrbs_nEvOQBKr78tdkim-1" vertex="1">
          <mxGeometry width="60" height="30" as="geometry">
            <mxRectangle width="60" height="30" as="alternateBounds" />
          </mxGeometry>
        </mxCell>
        <mxCell id="Yrbs_nEvOQBKr78tdkim-3" value="Password" style="shape=partialRectangle;connectable=0;top=0;left=0;bottom=0;right=0;align=left;spacingLeft=6;fontStyle=0;overflow=hidden;whiteSpace=wrap;html=1;labelBackgroundColor=none;fontColor=#FFFFFF;fillColor=#000000;" parent="Yrbs_nEvOQBKr78tdkim-1" vertex="1">
          <mxGeometry x="60" width="120" height="30" as="geometry">
            <mxRectangle width="120" height="30" as="alternateBounds" />
          </mxGeometry>
        </mxCell>
        <mxCell id="EUW1ggzbCYV0IEQcEuZo-1" value="" style="shape=tableRow;horizontal=0;startSize=0;swimlaneHead=0;swimlaneBody=0;collapsible=0;dropTarget=0;points=[[0,0.5],[1,0.5]];portConstraint=eastwest;top=0;left=0;right=0;bottom=0;labelBackgroundColor=none;fontColor=#FFFFFF;" parent="t15vQ16V7PW18Sh4I3XP-1" vertex="1">
          <mxGeometry y="90" width="180" height="30" as="geometry" />
        </mxCell>
        <mxCell id="EUW1ggzbCYV0IEQcEuZo-2" value="" style="shape=partialRectangle;connectable=0;top=0;left=0;bottom=0;right=0;fontStyle=0;overflow=hidden;whiteSpace=wrap;html=1;labelBackgroundColor=none;fontColor=#FFFFFF;strokeColor=#FFFFFF;fillColor=#000000;" parent="EUW1ggzbCYV0IEQcEuZo-1" vertex="1">
          <mxGeometry width="60" height="30" as="geometry">
            <mxRectangle width="60" height="30" as="alternateBounds" />
          </mxGeometry>
        </mxCell>
        <mxCell id="EUW1ggzbCYV0IEQcEuZo-3" value="Email" style="shape=partialRectangle;connectable=0;top=0;left=0;bottom=0;right=0;align=left;spacingLeft=6;fontStyle=0;overflow=hidden;whiteSpace=wrap;html=1;labelBackgroundColor=none;fontColor=#FFFFFF;fillColor=#000000;" parent="EUW1ggzbCYV0IEQcEuZo-1" vertex="1">
          <mxGeometry x="60" width="120" height="30" as="geometry">
            <mxRectangle width="120" height="30" as="alternateBounds" />
          </mxGeometry>
        </mxCell>
        <mxCell id="t15vQ16V7PW18Sh4I3XP-11" value="" style="shape=tableRow;horizontal=0;startSize=0;swimlaneHead=0;swimlaneBody=0;collapsible=0;dropTarget=0;points=[[0,0.5],[1,0.5]];portConstraint=eastwest;top=0;left=0;right=0;bottom=0;html=1;labelBackgroundColor=none;fontColor=#FFFFFF;" parent="t15vQ16V7PW18Sh4I3XP-1" vertex="1">
          <mxGeometry y="120" width="180" height="30" as="geometry" />
        </mxCell>
        <mxCell id="t15vQ16V7PW18Sh4I3XP-12" value="" style="shape=partialRectangle;connectable=0;top=0;left=0;bottom=0;right=0;editable=1;overflow=hidden;html=1;whiteSpace=wrap;labelBackgroundColor=none;fontColor=#FFFFFF;strokeColor=#FFFFFF;fillColor=#000000;" parent="t15vQ16V7PW18Sh4I3XP-11" vertex="1">
          <mxGeometry width="60" height="30" as="geometry">
            <mxRectangle width="60" height="30" as="alternateBounds" />
          </mxGeometry>
        </mxCell>
        <mxCell id="t15vQ16V7PW18Sh4I3XP-13" value="IsOnl" style="shape=partialRectangle;connectable=0;top=0;left=0;bottom=0;right=0;align=left;spacingLeft=6;overflow=hidden;html=1;whiteSpace=wrap;labelBackgroundColor=none;fontColor=#FFFFFF;fillColor=#000000;" parent="t15vQ16V7PW18Sh4I3XP-11" vertex="1">
          <mxGeometry x="60" width="120" height="30" as="geometry">
            <mxRectangle width="120" height="30" as="alternateBounds" />
          </mxGeometry>
        </mxCell>
        <mxCell id="DpA-v9cX5V6VYGjD_ToB-3" value="" style="shape=tableRow;horizontal=0;startSize=0;swimlaneHead=0;swimlaneBody=0;collapsible=0;dropTarget=0;points=[[0,0.5],[1,0.5]];portConstraint=eastwest;top=0;left=0;right=0;bottom=0;labelBackgroundColor=none;fontColor=#FFFFFF;" parent="t15vQ16V7PW18Sh4I3XP-1" vertex="1">
          <mxGeometry y="150" width="180" height="30" as="geometry" />
        </mxCell>
        <mxCell id="DpA-v9cX5V6VYGjD_ToB-4" value="" style="shape=partialRectangle;connectable=0;top=0;left=0;bottom=0;right=0;editable=1;overflow=hidden;labelBackgroundColor=none;fontColor=#FFFFFF;strokeColor=#FFFFFF;fillColor=#000000;" parent="DpA-v9cX5V6VYGjD_ToB-3" vertex="1">
          <mxGeometry width="60" height="30" as="geometry">
            <mxRectangle width="60" height="30" as="alternateBounds" />
          </mxGeometry>
        </mxCell>
        <mxCell id="DpA-v9cX5V6VYGjD_ToB-5" value="Level" style="shape=partialRectangle;connectable=0;top=0;left=0;bottom=0;right=0;align=left;spacingLeft=6;overflow=hidden;labelBackgroundColor=none;fontColor=#FFFFFF;fillColor=#000000;" parent="DpA-v9cX5V6VYGjD_ToB-3" vertex="1">
          <mxGeometry x="60" width="120" height="30" as="geometry">
            <mxRectangle width="120" height="30" as="alternateBounds" />
          </mxGeometry>
        </mxCell>
        <mxCell id="t15vQ16V7PW18Sh4I3XP-14" value="" style="shape=tableRow;horizontal=0;startSize=0;swimlaneHead=0;swimlaneBody=0;collapsible=0;dropTarget=0;points=[[0,0.5],[1,0.5]];portConstraint=eastwest;top=0;left=0;right=0;bottom=0;labelBackgroundColor=none;fontColor=#FFFFFF;" parent="t15vQ16V7PW18Sh4I3XP-1" vertex="1">
          <mxGeometry y="180" width="180" height="30" as="geometry" />
        </mxCell>
        <mxCell id="t15vQ16V7PW18Sh4I3XP-15" value="" style="shape=partialRectangle;connectable=0;top=0;left=0;bottom=0;right=0;editable=1;overflow=hidden;labelBackgroundColor=none;fontColor=#FFFFFF;strokeColor=#FFFFFF;fillColor=#000000;" parent="t15vQ16V7PW18Sh4I3XP-14" vertex="1">
          <mxGeometry width="60" height="30" as="geometry">
            <mxRectangle width="60" height="30" as="alternateBounds" />
          </mxGeometry>
        </mxCell>
        <mxCell id="t15vQ16V7PW18Sh4I3XP-16" value="CreatedDate" style="shape=partialRectangle;connectable=0;top=0;left=0;bottom=0;right=0;align=left;spacingLeft=6;overflow=hidden;labelBackgroundColor=none;fontColor=#FFFFFF;fillColor=#000000;" parent="t15vQ16V7PW18Sh4I3XP-14" vertex="1">
          <mxGeometry x="60" width="120" height="30" as="geometry">
            <mxRectangle width="120" height="30" as="alternateBounds" />
          </mxGeometry>
        </mxCell>
        <mxCell id="LJ9FQ1QA-3XyvPOc_EC1-1" value="Customer" style="shape=table;startSize=30;container=1;collapsible=1;childLayout=tableLayout;fixedRows=1;rowLines=0;fontStyle=1;align=center;resizeLast=1;html=1;labelBackgroundColor=none;fontColor=#FFFFFF;fillColor=#050505;strokeColor=#FFFFFF;" parent="1" vertex="1">
          <mxGeometry x="-213" y="1220" width="180" height="120" as="geometry" />
        </mxCell>
        <mxCell id="EUW1ggzbCYV0IEQcEuZo-7" value="" style="shape=tableRow;horizontal=0;startSize=0;swimlaneHead=0;swimlaneBody=0;collapsible=0;dropTarget=0;points=[[0,0.5],[1,0.5]];portConstraint=eastwest;top=0;left=0;right=0;bottom=0;labelBackgroundColor=none;fontColor=#FFFFFF;fillColor=#FFFFFF;strokeColor=#FFFFFF;" parent="LJ9FQ1QA-3XyvPOc_EC1-1" vertex="1">
          <mxGeometry y="30" width="180" height="30" as="geometry" />
        </mxCell>
        <mxCell id="EUW1ggzbCYV0IEQcEuZo-8" value="" style="shape=partialRectangle;connectable=0;top=0;left=0;bottom=0;right=0;fontStyle=0;overflow=hidden;whiteSpace=wrap;html=1;labelBackgroundColor=none;fontColor=#FFFFFF;fillColor=#000000;" parent="EUW1ggzbCYV0IEQcEuZo-7" vertex="1">
          <mxGeometry width="30" height="30" as="geometry">
            <mxRectangle width="30" height="30" as="alternateBounds" />
          </mxGeometry>
        </mxCell>
        <mxCell id="EUW1ggzbCYV0IEQcEuZo-9" value="Username" style="shape=partialRectangle;connectable=0;top=0;left=0;bottom=0;right=0;align=left;spacingLeft=6;fontStyle=0;overflow=hidden;whiteSpace=wrap;html=1;labelBackgroundColor=none;fontColor=#FFFFFF;fillColor=#000000;" parent="EUW1ggzbCYV0IEQcEuZo-7" vertex="1">
          <mxGeometry x="30" width="150" height="30" as="geometry">
            <mxRectangle width="150" height="30" as="alternateBounds" />
          </mxGeometry>
        </mxCell>
        <mxCell id="Xvhyz3b4iZI3sDWrhulA-1" value="" style="shape=tableRow;horizontal=0;startSize=0;swimlaneHead=0;swimlaneBody=0;collapsible=0;dropTarget=0;points=[[0,0.5],[1,0.5]];portConstraint=eastwest;top=0;left=0;right=0;bottom=0;labelBackgroundColor=none;fontColor=#FFFFFF;strokeColor=#FFFFFF;" parent="LJ9FQ1QA-3XyvPOc_EC1-1" vertex="1">
          <mxGeometry y="60" width="180" height="30" as="geometry" />
        </mxCell>
        <mxCell id="Xvhyz3b4iZI3sDWrhulA-2" value="" style="shape=partialRectangle;connectable=0;top=0;left=0;bottom=0;right=0;fontStyle=0;overflow=hidden;whiteSpace=wrap;html=1;labelBackgroundColor=none;fontColor=#FFFFFF;fillColor=#000000;" parent="Xvhyz3b4iZI3sDWrhulA-1" vertex="1">
          <mxGeometry width="30" height="30" as="geometry">
            <mxRectangle width="30" height="30" as="alternateBounds" />
          </mxGeometry>
        </mxCell>
        <mxCell id="Xvhyz3b4iZI3sDWrhulA-3" value="Password" style="shape=partialRectangle;connectable=0;top=0;left=0;bottom=0;right=0;align=left;spacingLeft=6;fontStyle=0;overflow=hidden;whiteSpace=wrap;html=1;labelBackgroundColor=none;fontColor=#FFFFFF;fillColor=#000000;" parent="Xvhyz3b4iZI3sDWrhulA-1" vertex="1">
          <mxGeometry x="30" width="150" height="30" as="geometry">
            <mxRectangle width="150" height="30" as="alternateBounds" />
          </mxGeometry>
        </mxCell>
        <mxCell id="LJ9FQ1QA-3XyvPOc_EC1-2" value="" style="shape=tableRow;horizontal=0;startSize=0;swimlaneHead=0;swimlaneBody=0;collapsible=0;dropTarget=0;points=[[0,0.5],[1,0.5]];portConstraint=eastwest;top=0;left=0;right=0;bottom=1;labelBackgroundColor=none;fontColor=#FFFFFF;strokeColor=#FFFFFF;" parent="LJ9FQ1QA-3XyvPOc_EC1-1" vertex="1">
          <mxGeometry y="90" width="180" height="30" as="geometry" />
        </mxCell>
        <mxCell id="LJ9FQ1QA-3XyvPOc_EC1-3" value="PK" style="shape=partialRectangle;connectable=0;top=0;left=0;bottom=0;right=0;fontStyle=1;overflow=hidden;whiteSpace=wrap;html=1;labelBackgroundColor=none;fontColor=#FFFFFF;fillColor=#000000;" parent="LJ9FQ1QA-3XyvPOc_EC1-2" vertex="1">
          <mxGeometry width="30" height="30" as="geometry">
            <mxRectangle width="30" height="30" as="alternateBounds" />
          </mxGeometry>
        </mxCell>
        <mxCell id="LJ9FQ1QA-3XyvPOc_EC1-4" value="Email" style="shape=partialRectangle;connectable=0;top=0;left=0;bottom=0;right=0;align=left;spacingLeft=6;fontStyle=5;overflow=hidden;whiteSpace=wrap;html=1;labelBackgroundColor=none;fontColor=#FFFFFF;fillColor=#000000;" parent="LJ9FQ1QA-3XyvPOc_EC1-2" vertex="1">
          <mxGeometry x="30" width="150" height="30" as="geometry">
            <mxRectangle width="150" height="30" as="alternateBounds" />
          </mxGeometry>
        </mxCell>
        <mxCell id="LJ9FQ1QA-3XyvPOc_EC1-14" value="CustomerInformation" style="shape=table;startSize=30;container=1;collapsible=1;childLayout=tableLayout;fixedRows=1;rowLines=0;fontStyle=1;align=center;resizeLast=1;html=1;labelBackgroundColor=none;fontColor=#FFFFFF;fillColor=#050505;strokeColor=#FFFFFF;" parent="1" vertex="1">
          <mxGeometry x="165" y="1112" width="180" height="180" as="geometry" />
        </mxCell>
        <mxCell id="unoWWUsJdHGN-85mRql6-1" value="" style="shape=tableRow;horizontal=0;startSize=0;swimlaneHead=0;swimlaneBody=0;collapsible=0;dropTarget=0;points=[[0,0.5],[1,0.5]];portConstraint=eastwest;top=0;left=0;right=0;bottom=0;labelBackgroundColor=none;fontColor=#FFFFFF;" parent="LJ9FQ1QA-3XyvPOc_EC1-14" vertex="1">
          <mxGeometry y="30" width="180" height="30" as="geometry" />
        </mxCell>
        <mxCell id="unoWWUsJdHGN-85mRql6-2" value="FK" style="shape=partialRectangle;connectable=0;top=0;left=0;bottom=0;right=0;fontStyle=0;overflow=hidden;whiteSpace=wrap;html=1;labelBackgroundColor=none;fontColor=#FFFFFF;fillColor=#000000;" parent="unoWWUsJdHGN-85mRql6-1" vertex="1">
          <mxGeometry width="30" height="30" as="geometry">
            <mxRectangle width="30" height="30" as="alternateBounds" />
          </mxGeometry>
        </mxCell>
        <mxCell id="unoWWUsJdHGN-85mRql6-3" value="CustomerEmail" style="shape=partialRectangle;connectable=0;top=0;left=0;bottom=0;right=0;align=left;spacingLeft=6;fontStyle=0;overflow=hidden;whiteSpace=wrap;html=1;labelBackgroundColor=none;fontColor=#FFFFFF;fillColor=#000000;" parent="unoWWUsJdHGN-85mRql6-1" vertex="1">
          <mxGeometry x="30" width="150" height="30" as="geometry">
            <mxRectangle width="150" height="30" as="alternateBounds" />
          </mxGeometry>
        </mxCell>
        <mxCell id="LJ9FQ1QA-3XyvPOc_EC1-15" value="" style="shape=tableRow;horizontal=0;startSize=0;swimlaneHead=0;swimlaneBody=0;collapsible=0;dropTarget=0;points=[[0,0.5],[1,0.5]];portConstraint=eastwest;top=0;left=0;right=0;bottom=1;labelBackgroundColor=none;fontColor=#FFFFFF;" parent="LJ9FQ1QA-3XyvPOc_EC1-14" vertex="1">
          <mxGeometry y="60" width="180" height="30" as="geometry" />
        </mxCell>
        <mxCell id="LJ9FQ1QA-3XyvPOc_EC1-16" value="PK" style="shape=partialRectangle;connectable=0;top=0;left=0;bottom=0;right=0;fontStyle=1;overflow=hidden;whiteSpace=wrap;html=1;labelBackgroundColor=none;fontColor=#FFFFFF;fillColor=#000000;" parent="LJ9FQ1QA-3XyvPOc_EC1-15" vertex="1">
          <mxGeometry width="30" height="30" as="geometry">
            <mxRectangle width="30" height="30" as="alternateBounds" />
          </mxGeometry>
        </mxCell>
        <mxCell id="LJ9FQ1QA-3XyvPOc_EC1-17" value="CInforId" style="shape=partialRectangle;connectable=0;top=0;left=0;bottom=0;right=0;align=left;spacingLeft=6;fontStyle=5;overflow=hidden;whiteSpace=wrap;html=1;labelBackgroundColor=none;fontColor=#FFFFFF;fillColor=#000000;" parent="LJ9FQ1QA-3XyvPOc_EC1-15" vertex="1">
          <mxGeometry x="30" width="150" height="30" as="geometry">
            <mxRectangle width="150" height="30" as="alternateBounds" />
          </mxGeometry>
        </mxCell>
        <mxCell id="LJ9FQ1QA-3XyvPOc_EC1-18" value="" style="shape=tableRow;horizontal=0;startSize=0;swimlaneHead=0;swimlaneBody=0;collapsible=0;dropTarget=0;points=[[0,0.5],[1,0.5]];portConstraint=eastwest;top=0;left=0;right=0;bottom=0;labelBackgroundColor=none;fontColor=#FFFFFF;" parent="LJ9FQ1QA-3XyvPOc_EC1-14" vertex="1">
          <mxGeometry y="90" width="180" height="30" as="geometry" />
        </mxCell>
        <mxCell id="LJ9FQ1QA-3XyvPOc_EC1-19" value="" style="shape=partialRectangle;connectable=0;top=0;left=0;bottom=0;right=0;editable=1;overflow=hidden;whiteSpace=wrap;html=1;labelBackgroundColor=none;fontColor=#FFFFFF;fillColor=#000000;" parent="LJ9FQ1QA-3XyvPOc_EC1-18" vertex="1">
          <mxGeometry width="30" height="30" as="geometry">
            <mxRectangle width="30" height="30" as="alternateBounds" />
          </mxGeometry>
        </mxCell>
        <mxCell id="LJ9FQ1QA-3XyvPOc_EC1-20" value="Name" style="shape=partialRectangle;connectable=0;top=0;left=0;bottom=0;right=0;align=left;spacingLeft=6;overflow=hidden;whiteSpace=wrap;html=1;labelBackgroundColor=none;fontColor=#FFFFFF;fillColor=#000000;" parent="LJ9FQ1QA-3XyvPOc_EC1-18" vertex="1">
          <mxGeometry x="30" width="150" height="30" as="geometry">
            <mxRectangle width="150" height="30" as="alternateBounds" />
          </mxGeometry>
        </mxCell>
        <mxCell id="LJ9FQ1QA-3XyvPOc_EC1-21" value="" style="shape=tableRow;horizontal=0;startSize=0;swimlaneHead=0;swimlaneBody=0;collapsible=0;dropTarget=0;points=[[0,0.5],[1,0.5]];portConstraint=eastwest;top=0;left=0;right=0;bottom=0;labelBackgroundColor=none;fontColor=#FFFFFF;" parent="LJ9FQ1QA-3XyvPOc_EC1-14" vertex="1">
          <mxGeometry y="120" width="180" height="30" as="geometry" />
        </mxCell>
        <mxCell id="LJ9FQ1QA-3XyvPOc_EC1-22" value="" style="shape=partialRectangle;connectable=0;top=0;left=0;bottom=0;right=0;editable=1;overflow=hidden;whiteSpace=wrap;html=1;labelBackgroundColor=none;fontColor=#FFFFFF;fillColor=#000000;" parent="LJ9FQ1QA-3XyvPOc_EC1-21" vertex="1">
          <mxGeometry width="30" height="30" as="geometry">
            <mxRectangle width="30" height="30" as="alternateBounds" />
          </mxGeometry>
        </mxCell>
        <mxCell id="LJ9FQ1QA-3XyvPOc_EC1-23" value="PhoneNumber" style="shape=partialRectangle;connectable=0;top=0;left=0;bottom=0;right=0;align=left;spacingLeft=6;overflow=hidden;whiteSpace=wrap;html=1;labelBackgroundColor=none;fontColor=#FFFFFF;fillColor=#000000;" parent="LJ9FQ1QA-3XyvPOc_EC1-21" vertex="1">
          <mxGeometry x="30" width="150" height="30" as="geometry">
            <mxRectangle width="150" height="30" as="alternateBounds" />
          </mxGeometry>
        </mxCell>
        <mxCell id="LJ9FQ1QA-3XyvPOc_EC1-24" value="" style="shape=tableRow;horizontal=0;startSize=0;swimlaneHead=0;swimlaneBody=0;collapsible=0;dropTarget=0;points=[[0,0.5],[1,0.5]];portConstraint=eastwest;top=0;left=0;right=0;bottom=0;labelBackgroundColor=none;fontColor=#FFFFFF;" parent="LJ9FQ1QA-3XyvPOc_EC1-14" vertex="1">
          <mxGeometry y="150" width="180" height="30" as="geometry" />
        </mxCell>
        <mxCell id="LJ9FQ1QA-3XyvPOc_EC1-25" value="" style="shape=partialRectangle;connectable=0;top=0;left=0;bottom=0;right=0;editable=1;overflow=hidden;whiteSpace=wrap;html=1;labelBackgroundColor=none;fontColor=#FFFFFF;fillColor=#000000;" parent="LJ9FQ1QA-3XyvPOc_EC1-24" vertex="1">
          <mxGeometry width="30" height="30" as="geometry">
            <mxRectangle width="30" height="30" as="alternateBounds" />
          </mxGeometry>
        </mxCell>
        <mxCell id="LJ9FQ1QA-3XyvPOc_EC1-26" value="Address" style="shape=partialRectangle;connectable=0;top=0;left=0;bottom=0;right=0;align=left;spacingLeft=6;overflow=hidden;whiteSpace=wrap;html=1;labelBackgroundColor=none;fontColor=#FFFFFF;fillColor=#000000;" parent="LJ9FQ1QA-3XyvPOc_EC1-24" vertex="1">
          <mxGeometry x="30" width="150" height="30" as="geometry">
            <mxRectangle width="150" height="30" as="alternateBounds" />
          </mxGeometry>
        </mxCell>
        <mxCell id="LJ9FQ1QA-3XyvPOc_EC1-27" value="Name" style="ellipse;whiteSpace=wrap;html=1;strokeColor=#E8E8E8;fontColor=#FFFFFF;fillColor=#000000;" parent="1" vertex="1">
          <mxGeometry x="784" y="216" width="120" height="80" as="geometry" />
        </mxCell>
        <mxCell id="LJ9FQ1QA-3XyvPOc_EC1-28" value="" style="endArrow=none;html=1;rounded=0;entryX=0.5;entryY=1;entryDx=0;entryDy=0;exitX=0.5;exitY=0;exitDx=0;exitDy=0;strokeColor=#F5F5F5;fontColor=#050505;" parent="1" source="LJ9FQ1QA-3XyvPOc_EC1-27" target="WLxla5kFX-Y7wtaZwMnV-6" edge="1">
          <mxGeometry width="50" height="50" relative="1" as="geometry">
            <mxPoint x="598" y="305" as="sourcePoint" />
            <mxPoint x="648" y="255" as="targetPoint" />
          </mxGeometry>
        </mxCell>
        <mxCell id="LJ9FQ1QA-3XyvPOc_EC1-45" value="Cart" style="shape=table;startSize=30;container=1;collapsible=1;childLayout=tableLayout;fixedRows=1;rowLines=0;fontStyle=1;align=center;resizeLast=1;html=1;labelBackgroundColor=none;fontColor=#FFFFFF;fillColor=#050505;strokeColor=#FFFFFF;" parent="1" vertex="1">
          <mxGeometry x="125" y="1321" width="180" height="90" as="geometry" />
        </mxCell>
        <mxCell id="8uBBcfrq77zadJ1p51bN-1" value="" style="shape=tableRow;horizontal=0;startSize=0;swimlaneHead=0;swimlaneBody=0;collapsible=0;dropTarget=0;points=[[0,0.5],[1,0.5]];portConstraint=eastwest;top=0;left=0;right=0;bottom=0;labelBackgroundColor=none;fontColor=#FFFFFF;" parent="LJ9FQ1QA-3XyvPOc_EC1-45" vertex="1">
          <mxGeometry y="30" width="180" height="30" as="geometry" />
        </mxCell>
        <mxCell id="8uBBcfrq77zadJ1p51bN-2" value="" style="shape=partialRectangle;connectable=0;top=0;left=0;bottom=0;right=0;editable=1;overflow=hidden;labelBackgroundColor=none;fontColor=#FFFFFF;fillColor=#000000;" parent="8uBBcfrq77zadJ1p51bN-1" vertex="1">
          <mxGeometry width="30" height="30" as="geometry">
            <mxRectangle width="30" height="30" as="alternateBounds" />
          </mxGeometry>
        </mxCell>
        <mxCell id="8uBBcfrq77zadJ1p51bN-3" value="CustomerEmail" style="shape=partialRectangle;connectable=0;top=0;left=0;bottom=0;right=0;align=left;spacingLeft=6;overflow=hidden;labelBackgroundColor=none;fontColor=#FFFFFF;fillColor=#000000;" parent="8uBBcfrq77zadJ1p51bN-1" vertex="1">
          <mxGeometry x="30" width="150" height="30" as="geometry">
            <mxRectangle width="150" height="30" as="alternateBounds" />
          </mxGeometry>
        </mxCell>
        <mxCell id="LJ9FQ1QA-3XyvPOc_EC1-46" value="" style="shape=tableRow;horizontal=0;startSize=0;swimlaneHead=0;swimlaneBody=0;collapsible=0;dropTarget=0;points=[[0,0.5],[1,0.5]];portConstraint=eastwest;top=0;left=0;right=0;bottom=1;labelBackgroundColor=none;fontColor=#FFFFFF;strokeColor=#FFFFFF;" parent="LJ9FQ1QA-3XyvPOc_EC1-45" vertex="1">
          <mxGeometry y="60" width="180" height="30" as="geometry" />
        </mxCell>
        <mxCell id="LJ9FQ1QA-3XyvPOc_EC1-47" value="PK" style="shape=partialRectangle;connectable=0;top=0;left=0;bottom=0;right=0;fontStyle=1;overflow=hidden;whiteSpace=wrap;html=1;labelBackgroundColor=none;fontColor=#FFFFFF;fillColor=#000000;" parent="LJ9FQ1QA-3XyvPOc_EC1-46" vertex="1">
          <mxGeometry width="30" height="30" as="geometry">
            <mxRectangle width="30" height="30" as="alternateBounds" />
          </mxGeometry>
        </mxCell>
        <mxCell id="LJ9FQ1QA-3XyvPOc_EC1-48" value="Id" style="shape=partialRectangle;connectable=0;top=0;left=0;bottom=0;right=0;align=left;spacingLeft=6;fontStyle=5;overflow=hidden;whiteSpace=wrap;html=1;labelBackgroundColor=none;fontColor=#FFFFFF;fillColor=#000000;" parent="LJ9FQ1QA-3XyvPOc_EC1-46" vertex="1">
          <mxGeometry x="30" width="150" height="30" as="geometry">
            <mxRectangle width="150" height="30" as="alternateBounds" />
          </mxGeometry>
        </mxCell>
        <mxCell id="LJ9FQ1QA-3XyvPOc_EC1-58" value="CartItem" style="shape=table;startSize=30;container=1;collapsible=1;childLayout=tableLayout;fixedRows=1;rowLines=0;fontStyle=1;align=center;resizeLast=1;html=1;labelBackgroundColor=none;fontColor=#FFFFFF;fillColor=#050505;strokeColor=#FFFFFF;" parent="1" vertex="1">
          <mxGeometry x="474" y="1504" width="180" height="120" as="geometry" />
        </mxCell>
        <mxCell id="lQNjZ04hb6nhQzhxdgk5-4" value="" style="shape=tableRow;horizontal=0;startSize=0;swimlaneHead=0;swimlaneBody=0;collapsible=0;dropTarget=0;points=[[0,0.5],[1,0.5]];portConstraint=eastwest;top=0;left=0;right=0;bottom=0;labelBackgroundColor=none;fontColor=#FFFFFF;" parent="LJ9FQ1QA-3XyvPOc_EC1-58" vertex="1">
          <mxGeometry y="30" width="180" height="30" as="geometry" />
        </mxCell>
        <mxCell id="lQNjZ04hb6nhQzhxdgk5-5" value="FK" style="shape=partialRectangle;connectable=0;top=0;left=0;bottom=0;right=0;fontStyle=0;overflow=hidden;whiteSpace=wrap;html=1;labelBackgroundColor=none;fontColor=#FFFFFF;fillColor=#000000;" parent="lQNjZ04hb6nhQzhxdgk5-4" vertex="1">
          <mxGeometry width="30" height="30" as="geometry">
            <mxRectangle width="30" height="30" as="alternateBounds" />
          </mxGeometry>
        </mxCell>
        <mxCell id="lQNjZ04hb6nhQzhxdgk5-6" value="Code" style="shape=partialRectangle;connectable=0;top=0;left=0;bottom=0;right=0;align=left;spacingLeft=6;fontStyle=0;overflow=hidden;whiteSpace=wrap;html=1;labelBackgroundColor=none;fontColor=#FFFFFF;fillColor=#000000;" parent="lQNjZ04hb6nhQzhxdgk5-4" vertex="1">
          <mxGeometry x="30" width="150" height="30" as="geometry">
            <mxRectangle width="150" height="30" as="alternateBounds" />
          </mxGeometry>
        </mxCell>
        <mxCell id="LJ9FQ1QA-3XyvPOc_EC1-59" value="" style="shape=tableRow;horizontal=0;startSize=0;swimlaneHead=0;swimlaneBody=0;collapsible=0;dropTarget=0;points=[[0,0.5],[1,0.5]];portConstraint=eastwest;top=0;left=0;right=0;bottom=1;labelBackgroundColor=none;fontColor=#FFFFFF;" parent="LJ9FQ1QA-3XyvPOc_EC1-58" vertex="1">
          <mxGeometry y="60" width="180" height="30" as="geometry" />
        </mxCell>
        <mxCell id="LJ9FQ1QA-3XyvPOc_EC1-60" value="PK" style="shape=partialRectangle;connectable=0;top=0;left=0;bottom=0;right=0;fontStyle=1;overflow=hidden;whiteSpace=wrap;html=1;labelBackgroundColor=none;fontColor=#FFFFFF;fillColor=#000000;" parent="LJ9FQ1QA-3XyvPOc_EC1-59" vertex="1">
          <mxGeometry width="30" height="30" as="geometry">
            <mxRectangle width="30" height="30" as="alternateBounds" />
          </mxGeometry>
        </mxCell>
        <mxCell id="LJ9FQ1QA-3XyvPOc_EC1-61" value="ItemId" style="shape=partialRectangle;connectable=0;top=0;left=0;bottom=0;right=0;align=left;spacingLeft=6;fontStyle=5;overflow=hidden;whiteSpace=wrap;html=1;labelBackgroundColor=none;fontColor=#FFFFFF;fillColor=#000000;" parent="LJ9FQ1QA-3XyvPOc_EC1-59" vertex="1">
          <mxGeometry x="30" width="150" height="30" as="geometry">
            <mxRectangle width="150" height="30" as="alternateBounds" />
          </mxGeometry>
        </mxCell>
        <mxCell id="LJ9FQ1QA-3XyvPOc_EC1-62" value="" style="shape=tableRow;horizontal=0;startSize=0;swimlaneHead=0;swimlaneBody=0;collapsible=0;dropTarget=0;points=[[0,0.5],[1,0.5]];portConstraint=eastwest;top=0;left=0;right=0;bottom=0;labelBackgroundColor=none;fontColor=#FFFFFF;" parent="LJ9FQ1QA-3XyvPOc_EC1-58" vertex="1">
          <mxGeometry y="90" width="180" height="30" as="geometry" />
        </mxCell>
        <mxCell id="LJ9FQ1QA-3XyvPOc_EC1-63" value="" style="shape=partialRectangle;connectable=0;top=0;left=0;bottom=0;right=0;editable=1;overflow=hidden;whiteSpace=wrap;html=1;labelBackgroundColor=none;fontColor=#FFFFFF;fillColor=#000000;" parent="LJ9FQ1QA-3XyvPOc_EC1-62" vertex="1">
          <mxGeometry width="30" height="30" as="geometry">
            <mxRectangle width="30" height="30" as="alternateBounds" />
          </mxGeometry>
        </mxCell>
        <mxCell id="LJ9FQ1QA-3XyvPOc_EC1-64" value="Quantity" style="shape=partialRectangle;connectable=0;top=0;left=0;bottom=0;right=0;align=left;spacingLeft=6;overflow=hidden;whiteSpace=wrap;html=1;labelBackgroundColor=none;fontColor=#FFFFFF;fillColor=#000000;" parent="LJ9FQ1QA-3XyvPOc_EC1-62" vertex="1">
          <mxGeometry x="30" width="150" height="30" as="geometry">
            <mxRectangle width="150" height="30" as="alternateBounds" />
          </mxGeometry>
        </mxCell>
        <mxCell id="LJ9FQ1QA-3XyvPOc_EC1-71" value="Order" style="shape=table;startSize=30;container=1;collapsible=1;childLayout=tableLayout;fixedRows=1;rowLines=0;fontStyle=1;align=center;resizeLast=1;html=1;labelBackgroundColor=none;fontColor=#FFFFFF;fillColor=#050505;strokeColor=#FFFFFF;" parent="1" vertex="1">
          <mxGeometry x="114" y="1482" width="180" height="270" as="geometry" />
        </mxCell>
        <mxCell id="LJ9FQ1QA-3XyvPOc_EC1-72" value="" style="shape=tableRow;horizontal=0;startSize=0;swimlaneHead=0;swimlaneBody=0;collapsible=0;dropTarget=0;points=[[0,0.5],[1,0.5]];portConstraint=eastwest;top=0;left=0;right=0;bottom=1;labelBackgroundColor=none;fontColor=#FFFFFF;" parent="LJ9FQ1QA-3XyvPOc_EC1-71" vertex="1">
          <mxGeometry y="30" width="180" height="30" as="geometry" />
        </mxCell>
        <mxCell id="LJ9FQ1QA-3XyvPOc_EC1-73" value="PK" style="shape=partialRectangle;connectable=0;top=0;left=0;bottom=0;right=0;fontStyle=1;overflow=hidden;whiteSpace=wrap;html=1;labelBackgroundColor=none;fontColor=#FFFFFF;fillColor=#000000;" parent="LJ9FQ1QA-3XyvPOc_EC1-72" vertex="1">
          <mxGeometry width="30" height="30" as="geometry">
            <mxRectangle width="30" height="30" as="alternateBounds" />
          </mxGeometry>
        </mxCell>
        <mxCell id="LJ9FQ1QA-3XyvPOc_EC1-74" value="OrderCode" style="shape=partialRectangle;connectable=0;top=0;left=0;bottom=0;right=0;align=left;spacingLeft=6;fontStyle=5;overflow=hidden;whiteSpace=wrap;html=1;labelBackgroundColor=none;fontColor=#FFFFFF;fillColor=#000000;" parent="LJ9FQ1QA-3XyvPOc_EC1-72" vertex="1">
          <mxGeometry x="30" width="150" height="30" as="geometry">
            <mxRectangle width="150" height="30" as="alternateBounds" />
          </mxGeometry>
        </mxCell>
        <mxCell id="LJ9FQ1QA-3XyvPOc_EC1-75" value="" style="shape=tableRow;horizontal=0;startSize=0;swimlaneHead=0;swimlaneBody=0;collapsible=0;dropTarget=0;points=[[0,0.5],[1,0.5]];portConstraint=eastwest;top=0;left=0;right=0;bottom=0;labelBackgroundColor=none;fontColor=#FFFFFF;" parent="LJ9FQ1QA-3XyvPOc_EC1-71" vertex="1">
          <mxGeometry y="60" width="180" height="30" as="geometry" />
        </mxCell>
        <mxCell id="LJ9FQ1QA-3XyvPOc_EC1-76" value="" style="shape=partialRectangle;connectable=0;top=0;left=0;bottom=0;right=0;editable=1;overflow=hidden;whiteSpace=wrap;html=1;labelBackgroundColor=none;fontColor=#FFFFFF;fillColor=#000000;" parent="LJ9FQ1QA-3XyvPOc_EC1-75" vertex="1">
          <mxGeometry width="30" height="30" as="geometry">
            <mxRectangle width="30" height="30" as="alternateBounds" />
          </mxGeometry>
        </mxCell>
        <mxCell id="LJ9FQ1QA-3XyvPOc_EC1-77" value="OrderDate" style="shape=partialRectangle;connectable=0;top=0;left=0;bottom=0;right=0;align=left;spacingLeft=6;overflow=hidden;whiteSpace=wrap;html=1;labelBackgroundColor=none;fontColor=#FFFFFF;fillColor=#000000;" parent="LJ9FQ1QA-3XyvPOc_EC1-75" vertex="1">
          <mxGeometry x="30" width="150" height="30" as="geometry">
            <mxRectangle width="150" height="30" as="alternateBounds" />
          </mxGeometry>
        </mxCell>
        <mxCell id="imXE-3EiVJiVhP0i6caD-5" value="" style="shape=tableRow;horizontal=0;startSize=0;swimlaneHead=0;swimlaneBody=0;collapsible=0;dropTarget=0;points=[[0,0.5],[1,0.5]];portConstraint=eastwest;top=0;left=0;right=0;bottom=0;labelBackgroundColor=none;fontColor=#FFFFFF;" parent="LJ9FQ1QA-3XyvPOc_EC1-71" vertex="1">
          <mxGeometry y="90" width="180" height="30" as="geometry" />
        </mxCell>
        <mxCell id="imXE-3EiVJiVhP0i6caD-6" value="" style="shape=partialRectangle;connectable=0;top=0;left=0;bottom=0;right=0;editable=1;overflow=hidden;labelBackgroundColor=none;fontColor=#FFFFFF;fillColor=#000000;" parent="imXE-3EiVJiVhP0i6caD-5" vertex="1">
          <mxGeometry width="30" height="30" as="geometry">
            <mxRectangle width="30" height="30" as="alternateBounds" />
          </mxGeometry>
        </mxCell>
        <mxCell id="imXE-3EiVJiVhP0i6caD-7" value="State" style="shape=partialRectangle;connectable=0;top=0;left=0;bottom=0;right=0;align=left;spacingLeft=6;overflow=hidden;labelBackgroundColor=none;fontColor=#FFFFFF;fillColor=#000000;" parent="imXE-3EiVJiVhP0i6caD-5" vertex="1">
          <mxGeometry x="30" width="150" height="30" as="geometry">
            <mxRectangle width="150" height="30" as="alternateBounds" />
          </mxGeometry>
        </mxCell>
        <mxCell id="imXE-3EiVJiVhP0i6caD-8" value="" style="shape=tableRow;horizontal=0;startSize=0;swimlaneHead=0;swimlaneBody=0;collapsible=0;dropTarget=0;points=[[0,0.5],[1,0.5]];portConstraint=eastwest;top=0;left=0;right=0;bottom=0;labelBackgroundColor=none;fontColor=#FFFFFF;" parent="LJ9FQ1QA-3XyvPOc_EC1-71" vertex="1">
          <mxGeometry y="120" width="180" height="30" as="geometry" />
        </mxCell>
        <mxCell id="imXE-3EiVJiVhP0i6caD-9" value="" style="shape=partialRectangle;connectable=0;top=0;left=0;bottom=0;right=0;editable=1;overflow=hidden;labelBackgroundColor=none;fontColor=#FFFFFF;fillColor=#000000;" parent="imXE-3EiVJiVhP0i6caD-8" vertex="1">
          <mxGeometry width="30" height="30" as="geometry">
            <mxRectangle width="30" height="30" as="alternateBounds" />
          </mxGeometry>
        </mxCell>
        <mxCell id="imXE-3EiVJiVhP0i6caD-10" value="DeliveryDate" style="shape=partialRectangle;connectable=0;top=0;left=0;bottom=0;right=0;align=left;spacingLeft=6;overflow=hidden;labelBackgroundColor=none;fontColor=#FFFFFF;fillColor=#000000;" parent="imXE-3EiVJiVhP0i6caD-8" vertex="1">
          <mxGeometry x="30" width="150" height="30" as="geometry">
            <mxRectangle width="150" height="30" as="alternateBounds" />
          </mxGeometry>
        </mxCell>
        <mxCell id="KTiCrctCKgIO_f6w7qmm-3" value="" style="shape=tableRow;horizontal=0;startSize=0;swimlaneHead=0;swimlaneBody=0;collapsible=0;dropTarget=0;points=[[0,0.5],[1,0.5]];portConstraint=eastwest;top=0;left=0;right=0;bottom=0;labelBackgroundColor=none;fontColor=#FFFFFF;" parent="LJ9FQ1QA-3XyvPOc_EC1-71" vertex="1">
          <mxGeometry y="150" width="180" height="30" as="geometry" />
        </mxCell>
        <mxCell id="KTiCrctCKgIO_f6w7qmm-4" value="" style="shape=partialRectangle;connectable=0;top=0;left=0;bottom=0;right=0;editable=1;overflow=hidden;labelBackgroundColor=none;fontColor=#FFFFFF;fillColor=#000000;" parent="KTiCrctCKgIO_f6w7qmm-3" vertex="1">
          <mxGeometry width="30" height="30" as="geometry">
            <mxRectangle width="30" height="30" as="alternateBounds" />
          </mxGeometry>
        </mxCell>
        <mxCell id="KTiCrctCKgIO_f6w7qmm-5" value="PaymentMethod" style="shape=partialRectangle;connectable=0;top=0;left=0;bottom=0;right=0;align=left;spacingLeft=6;overflow=hidden;labelBackgroundColor=none;fontColor=#FFFFFF;fillColor=#000000;" parent="KTiCrctCKgIO_f6w7qmm-3" vertex="1">
          <mxGeometry x="30" width="150" height="30" as="geometry">
            <mxRectangle width="150" height="30" as="alternateBounds" />
          </mxGeometry>
        </mxCell>
        <mxCell id="BatyIcqajntN4nN0ISai-1" value="" style="shape=tableRow;horizontal=0;startSize=0;swimlaneHead=0;swimlaneBody=0;collapsible=0;dropTarget=0;points=[[0,0.5],[1,0.5]];portConstraint=eastwest;top=0;left=0;right=0;bottom=0;labelBackgroundColor=none;fontColor=#FFFFFF;" parent="LJ9FQ1QA-3XyvPOc_EC1-71" vertex="1">
          <mxGeometry y="180" width="180" height="30" as="geometry" />
        </mxCell>
        <mxCell id="BatyIcqajntN4nN0ISai-2" value="" style="shape=partialRectangle;connectable=0;top=0;left=0;bottom=0;right=0;editable=1;overflow=hidden;labelBackgroundColor=none;fontColor=#FFFFFF;fillColor=#000000;" parent="BatyIcqajntN4nN0ISai-1" vertex="1">
          <mxGeometry width="30" height="30" as="geometry">
            <mxRectangle width="30" height="30" as="alternateBounds" />
          </mxGeometry>
        </mxCell>
        <mxCell id="BatyIcqajntN4nN0ISai-3" value="CInforId" style="shape=partialRectangle;connectable=0;top=0;left=0;bottom=0;right=0;align=left;spacingLeft=6;overflow=hidden;labelBackgroundColor=none;fontColor=#FFFFFF;fillColor=#000000;" parent="BatyIcqajntN4nN0ISai-1" vertex="1">
          <mxGeometry x="30" width="150" height="30" as="geometry">
            <mxRectangle width="150" height="30" as="alternateBounds" />
          </mxGeometry>
        </mxCell>
        <mxCell id="6aSUM1rbd1WRh39qAGVx-12" value="" style="shape=tableRow;horizontal=0;startSize=0;swimlaneHead=0;swimlaneBody=0;collapsible=0;dropTarget=0;points=[[0,0.5],[1,0.5]];portConstraint=eastwest;top=0;left=0;right=0;bottom=0;labelBackgroundColor=none;fontColor=#FFFFFF;" parent="LJ9FQ1QA-3XyvPOc_EC1-71" vertex="1">
          <mxGeometry y="210" width="180" height="30" as="geometry" />
        </mxCell>
        <mxCell id="6aSUM1rbd1WRh39qAGVx-13" value="" style="shape=partialRectangle;connectable=0;top=0;left=0;bottom=0;right=0;editable=1;overflow=hidden;labelBackgroundColor=none;fontColor=#FFFFFF;fillColor=#000000;" parent="6aSUM1rbd1WRh39qAGVx-12" vertex="1">
          <mxGeometry width="30" height="30" as="geometry">
            <mxRectangle width="30" height="30" as="alternateBounds" />
          </mxGeometry>
        </mxCell>
        <mxCell id="6aSUM1rbd1WRh39qAGVx-14" value="Total" style="shape=partialRectangle;connectable=0;top=0;left=0;bottom=0;right=0;align=left;spacingLeft=6;overflow=hidden;labelBackgroundColor=none;fontColor=#FFFFFF;fillColor=#000000;" parent="6aSUM1rbd1WRh39qAGVx-12" vertex="1">
          <mxGeometry x="30" width="150" height="30" as="geometry">
            <mxRectangle width="150" height="30" as="alternateBounds" />
          </mxGeometry>
        </mxCell>
        <mxCell id="4X9SDFI6TMDCrNIGfnFM-9" value="" style="shape=tableRow;horizontal=0;startSize=0;swimlaneHead=0;swimlaneBody=0;collapsible=0;dropTarget=0;points=[[0,0.5],[1,0.5]];portConstraint=eastwest;top=0;left=0;right=0;bottom=0;labelBackgroundColor=none;fontColor=#FFFFFF;" parent="LJ9FQ1QA-3XyvPOc_EC1-71" vertex="1">
          <mxGeometry y="240" width="180" height="30" as="geometry" />
        </mxCell>
        <mxCell id="4X9SDFI6TMDCrNIGfnFM-10" value="" style="shape=partialRectangle;connectable=0;top=0;left=0;bottom=0;right=0;editable=1;overflow=hidden;labelBackgroundColor=none;fontColor=#FFFFFF;fillColor=#000000;" parent="4X9SDFI6TMDCrNIGfnFM-9" vertex="1">
          <mxGeometry width="30" height="30" as="geometry">
            <mxRectangle width="30" height="30" as="alternateBounds" />
          </mxGeometry>
        </mxCell>
        <mxCell id="4X9SDFI6TMDCrNIGfnFM-11" value="Comment" style="shape=partialRectangle;connectable=0;top=0;left=0;bottom=0;right=0;align=left;spacingLeft=6;overflow=hidden;labelBackgroundColor=none;fontColor=#FFFFFF;fillColor=#000000;" parent="4X9SDFI6TMDCrNIGfnFM-9" vertex="1">
          <mxGeometry x="30" width="150" height="30" as="geometry">
            <mxRectangle width="150" height="30" as="alternateBounds" />
          </mxGeometry>
        </mxCell>
        <mxCell id="LJ9FQ1QA-3XyvPOc_EC1-84" value="OrderItem" style="shape=table;startSize=30;container=1;collapsible=1;childLayout=tableLayout;fixedRows=1;rowLines=0;fontStyle=1;align=center;resizeLast=1;html=1;labelBackgroundColor=none;fontColor=#FFFFFF;fillColor=#050505;strokeColor=#FFFFFF;" parent="1" vertex="1">
          <mxGeometry x="358" y="1708" width="180" height="150" as="geometry" />
        </mxCell>
        <mxCell id="lQNjZ04hb6nhQzhxdgk5-7" value="" style="shape=tableRow;horizontal=0;startSize=0;swimlaneHead=0;swimlaneBody=0;collapsible=0;dropTarget=0;points=[[0,0.5],[1,0.5]];portConstraint=eastwest;top=0;left=0;right=0;bottom=0;labelBackgroundColor=none;fontColor=#FFFFFF;" parent="LJ9FQ1QA-3XyvPOc_EC1-84" vertex="1">
          <mxGeometry y="30" width="180" height="30" as="geometry" />
        </mxCell>
        <mxCell id="lQNjZ04hb6nhQzhxdgk5-8" value="FK" style="shape=partialRectangle;connectable=0;top=0;left=0;bottom=0;right=0;fontStyle=0;overflow=hidden;whiteSpace=wrap;html=1;labelBackgroundColor=none;fontColor=#FFFFFF;fillColor=#000000;" parent="lQNjZ04hb6nhQzhxdgk5-7" vertex="1">
          <mxGeometry width="30" height="30" as="geometry">
            <mxRectangle width="30" height="30" as="alternateBounds" />
          </mxGeometry>
        </mxCell>
        <mxCell id="lQNjZ04hb6nhQzhxdgk5-9" value="Code" style="shape=partialRectangle;connectable=0;top=0;left=0;bottom=0;right=0;align=left;spacingLeft=6;fontStyle=0;overflow=hidden;whiteSpace=wrap;html=1;labelBackgroundColor=none;fontColor=#FFFFFF;fillColor=#000000;" parent="lQNjZ04hb6nhQzhxdgk5-7" vertex="1">
          <mxGeometry x="30" width="150" height="30" as="geometry">
            <mxRectangle width="150" height="30" as="alternateBounds" />
          </mxGeometry>
        </mxCell>
        <mxCell id="LJ9FQ1QA-3XyvPOc_EC1-85" value="" style="shape=tableRow;horizontal=0;startSize=0;swimlaneHead=0;swimlaneBody=0;collapsible=0;dropTarget=0;points=[[0,0.5],[1,0.5]];portConstraint=eastwest;top=0;left=0;right=0;bottom=1;labelBackgroundColor=none;fontColor=#FFFFFF;" parent="LJ9FQ1QA-3XyvPOc_EC1-84" vertex="1">
          <mxGeometry y="60" width="180" height="30" as="geometry" />
        </mxCell>
        <mxCell id="LJ9FQ1QA-3XyvPOc_EC1-86" value="PK" style="shape=partialRectangle;connectable=0;top=0;left=0;bottom=0;right=0;fontStyle=1;overflow=hidden;whiteSpace=wrap;html=1;labelBackgroundColor=none;fontColor=#FFFFFF;fillColor=#000000;" parent="LJ9FQ1QA-3XyvPOc_EC1-85" vertex="1">
          <mxGeometry width="30" height="30" as="geometry">
            <mxRectangle width="30" height="30" as="alternateBounds" />
          </mxGeometry>
        </mxCell>
        <mxCell id="LJ9FQ1QA-3XyvPOc_EC1-87" value="Id" style="shape=partialRectangle;connectable=0;top=0;left=0;bottom=0;right=0;align=left;spacingLeft=6;fontStyle=5;overflow=hidden;whiteSpace=wrap;html=1;labelBackgroundColor=none;fontColor=#FFFFFF;fillColor=#000000;" parent="LJ9FQ1QA-3XyvPOc_EC1-85" vertex="1">
          <mxGeometry x="30" width="150" height="30" as="geometry">
            <mxRectangle width="150" height="30" as="alternateBounds" />
          </mxGeometry>
        </mxCell>
        <mxCell id="LJ9FQ1QA-3XyvPOc_EC1-88" value="" style="shape=tableRow;horizontal=0;startSize=0;swimlaneHead=0;swimlaneBody=0;collapsible=0;dropTarget=0;points=[[0,0.5],[1,0.5]];portConstraint=eastwest;top=0;left=0;right=0;bottom=0;labelBackgroundColor=none;fontColor=#FFFFFF;" parent="LJ9FQ1QA-3XyvPOc_EC1-84" vertex="1">
          <mxGeometry y="90" width="180" height="30" as="geometry" />
        </mxCell>
        <mxCell id="LJ9FQ1QA-3XyvPOc_EC1-89" value="" style="shape=partialRectangle;connectable=0;top=0;left=0;bottom=0;right=0;editable=1;overflow=hidden;whiteSpace=wrap;html=1;labelBackgroundColor=none;fontColor=#FFFFFF;fillColor=#000000;" parent="LJ9FQ1QA-3XyvPOc_EC1-88" vertex="1">
          <mxGeometry width="30" height="30" as="geometry">
            <mxRectangle width="30" height="30" as="alternateBounds" />
          </mxGeometry>
        </mxCell>
        <mxCell id="LJ9FQ1QA-3XyvPOc_EC1-90" value="UnitPrice" style="shape=partialRectangle;connectable=0;top=0;left=0;bottom=0;right=0;align=left;spacingLeft=6;overflow=hidden;whiteSpace=wrap;html=1;labelBackgroundColor=none;fontColor=#FFFFFF;fillColor=#000000;" parent="LJ9FQ1QA-3XyvPOc_EC1-88" vertex="1">
          <mxGeometry x="30" width="150" height="30" as="geometry">
            <mxRectangle width="150" height="30" as="alternateBounds" />
          </mxGeometry>
        </mxCell>
        <mxCell id="LJ9FQ1QA-3XyvPOc_EC1-91" value="" style="shape=tableRow;horizontal=0;startSize=0;swimlaneHead=0;swimlaneBody=0;collapsible=0;dropTarget=0;points=[[0,0.5],[1,0.5]];portConstraint=eastwest;top=0;left=0;right=0;bottom=0;labelBackgroundColor=none;fontColor=#FFFFFF;" parent="LJ9FQ1QA-3XyvPOc_EC1-84" vertex="1">
          <mxGeometry y="120" width="180" height="30" as="geometry" />
        </mxCell>
        <mxCell id="LJ9FQ1QA-3XyvPOc_EC1-92" value="" style="shape=partialRectangle;connectable=0;top=0;left=0;bottom=0;right=0;editable=1;overflow=hidden;whiteSpace=wrap;html=1;labelBackgroundColor=none;fontColor=#FFFFFF;fillColor=#000000;" parent="LJ9FQ1QA-3XyvPOc_EC1-91" vertex="1">
          <mxGeometry width="30" height="30" as="geometry">
            <mxRectangle width="30" height="30" as="alternateBounds" />
          </mxGeometry>
        </mxCell>
        <mxCell id="LJ9FQ1QA-3XyvPOc_EC1-93" value="Quantity" style="shape=partialRectangle;connectable=0;top=0;left=0;bottom=0;right=0;align=left;spacingLeft=6;overflow=hidden;whiteSpace=wrap;html=1;labelBackgroundColor=none;fontColor=#FFFFFF;fillColor=#000000;" parent="LJ9FQ1QA-3XyvPOc_EC1-91" vertex="1">
          <mxGeometry x="30" width="150" height="30" as="geometry">
            <mxRectangle width="150" height="30" as="alternateBounds" />
          </mxGeometry>
        </mxCell>
        <mxCell id="LJ9FQ1QA-3XyvPOc_EC1-132" value="FoodCategory" style="shape=table;startSize=30;container=1;collapsible=1;childLayout=tableLayout;fixedRows=1;rowLines=0;fontStyle=1;align=center;resizeLast=1;html=1;labelBackgroundColor=none;fontColor=#FFFFFF;fillColor=#050505;strokeColor=#FFFFFF;" parent="1" vertex="1">
          <mxGeometry x="-535" y="1593" width="180" height="90" as="geometry" />
        </mxCell>
        <mxCell id="EUW1ggzbCYV0IEQcEuZo-19" value="" style="shape=tableRow;horizontal=0;startSize=0;swimlaneHead=0;swimlaneBody=0;collapsible=0;dropTarget=0;points=[[0,0.5],[1,0.5]];portConstraint=eastwest;top=0;left=0;right=0;bottom=0;labelBackgroundColor=none;fontColor=#FFFFFF;strokeColor=#FFFFFF;" parent="LJ9FQ1QA-3XyvPOc_EC1-132" vertex="1">
          <mxGeometry y="30" width="180" height="30" as="geometry" />
        </mxCell>
        <mxCell id="EUW1ggzbCYV0IEQcEuZo-20" value="" style="shape=partialRectangle;connectable=0;top=0;left=0;bottom=0;right=0;fontStyle=0;overflow=hidden;whiteSpace=wrap;html=1;labelBackgroundColor=none;fontColor=#FFFFFF;fillColor=#000000;" parent="EUW1ggzbCYV0IEQcEuZo-19" vertex="1">
          <mxGeometry width="30" height="30" as="geometry">
            <mxRectangle width="30" height="30" as="alternateBounds" />
          </mxGeometry>
        </mxCell>
        <mxCell id="EUW1ggzbCYV0IEQcEuZo-21" value="CategoryName" style="shape=partialRectangle;connectable=0;top=0;left=0;bottom=0;right=0;align=left;spacingLeft=6;fontStyle=0;overflow=hidden;whiteSpace=wrap;html=1;labelBackgroundColor=none;fontColor=#FFFFFF;fillColor=#000000;" parent="EUW1ggzbCYV0IEQcEuZo-19" vertex="1">
          <mxGeometry x="30" width="150" height="30" as="geometry">
            <mxRectangle width="150" height="30" as="alternateBounds" />
          </mxGeometry>
        </mxCell>
        <mxCell id="LJ9FQ1QA-3XyvPOc_EC1-133" value="" style="shape=tableRow;horizontal=0;startSize=0;swimlaneHead=0;swimlaneBody=0;collapsible=0;dropTarget=0;points=[[0,0.5],[1,0.5]];portConstraint=eastwest;top=0;left=0;right=0;bottom=1;labelBackgroundColor=none;fontColor=#FFFFFF;strokeColor=#FFFFFF;" parent="LJ9FQ1QA-3XyvPOc_EC1-132" vertex="1">
          <mxGeometry y="60" width="180" height="30" as="geometry" />
        </mxCell>
        <mxCell id="LJ9FQ1QA-3XyvPOc_EC1-134" value="PK" style="shape=partialRectangle;connectable=0;top=0;left=0;bottom=0;right=0;fontStyle=1;overflow=hidden;whiteSpace=wrap;html=1;labelBackgroundColor=none;fontColor=#FFFFFF;fillColor=#000000;" parent="LJ9FQ1QA-3XyvPOc_EC1-133" vertex="1">
          <mxGeometry width="30" height="30" as="geometry">
            <mxRectangle width="30" height="30" as="alternateBounds" />
          </mxGeometry>
        </mxCell>
        <mxCell id="LJ9FQ1QA-3XyvPOc_EC1-135" value="FCategoryCode" style="shape=partialRectangle;connectable=0;top=0;left=0;bottom=0;right=0;align=left;spacingLeft=6;fontStyle=5;overflow=hidden;whiteSpace=wrap;html=1;labelBackgroundColor=none;fontColor=#FFFFFF;fillColor=#000000;" parent="LJ9FQ1QA-3XyvPOc_EC1-133" vertex="1">
          <mxGeometry x="30" width="150" height="30" as="geometry">
            <mxRectangle width="150" height="30" as="alternateBounds" />
          </mxGeometry>
        </mxCell>
        <mxCell id="dlFD4GKLPnzRUDV24L1j-22" value="Code" style="ellipse;whiteSpace=wrap;html=1;strokeColor=#E8E8E8;fontColor=#FFFFFF;fillColor=#000000;" parent="1" vertex="1">
          <mxGeometry x="610" y="634" width="120" height="80" as="geometry" />
        </mxCell>
        <mxCell id="dlFD4GKLPnzRUDV24L1j-23" value="" style="endArrow=none;html=1;rounded=0;entryX=0.5;entryY=1;entryDx=0;entryDy=0;exitX=0.5;exitY=0;exitDx=0;exitDy=0;strokeColor=#F5F5F5;fontColor=#050505;" parent="1" source="dlFD4GKLPnzRUDV24L1j-22" target="sYMvWRUio1NoobQAcl4x-3" edge="1">
          <mxGeometry width="50" height="50" relative="1" as="geometry">
            <mxPoint x="571" y="651" as="sourcePoint" />
            <mxPoint x="621" y="601" as="targetPoint" />
          </mxGeometry>
        </mxCell>
        <mxCell id="dlFD4GKLPnzRUDV24L1j-61" value="" style="edgeStyle=entityRelationEdgeStyle;fontSize=12;html=1;endArrow=ERoneToMany;rounded=0;entryX=0;entryY=0.5;entryDx=0;entryDy=0;exitX=1;exitY=0.5;exitDx=0;exitDy=0;labelBackgroundColor=none;strokeColor=#F7F7F7;fontColor=#FFFFFF;" parent="1" source="EUW1ggzbCYV0IEQcEuZo-7" target="LJ9FQ1QA-3XyvPOc_EC1-21" edge="1">
          <mxGeometry width="100" height="100" relative="1" as="geometry">
            <mxPoint x="-15" y="1266" as="sourcePoint" />
            <mxPoint x="173" y="1384" as="targetPoint" />
          </mxGeometry>
        </mxCell>
        <mxCell id="dlFD4GKLPnzRUDV24L1j-76" value="" style="edgeStyle=entityRelationEdgeStyle;fontSize=12;html=1;endArrow=ERzeroToMany;endFill=1;rounded=0;exitX=1;exitY=0.5;exitDx=0;exitDy=0;entryX=0;entryY=0.5;entryDx=0;entryDy=0;labelBackgroundColor=none;strokeColor=#F7F7F7;fontColor=#FFFFFF;" parent="1" source="LJ9FQ1QA-3XyvPOc_EC1-46" target="LJ9FQ1QA-3XyvPOc_EC1-59" edge="1">
          <mxGeometry width="100" height="100" relative="1" as="geometry">
            <mxPoint x="304" y="1387" as="sourcePoint" />
            <mxPoint x="460" y="1509" as="targetPoint" />
          </mxGeometry>
        </mxCell>
        <mxCell id="dlFD4GKLPnzRUDV24L1j-77" value="" style="edgeStyle=entityRelationEdgeStyle;fontSize=12;html=1;endArrow=ERzeroToMany;endFill=1;rounded=0;exitX=1;exitY=0.056;exitDx=0;exitDy=0;entryX=0;entryY=0.5;entryDx=0;entryDy=0;labelBackgroundColor=none;exitPerimeter=0;strokeColor=#F7F7F7;fontColor=#FFFFFF;" parent="1" source="EIIiDots0ujYCdvbNFb_-1" target="LJ9FQ1QA-3XyvPOc_EC1-62" edge="1">
          <mxGeometry width="100" height="100" relative="1" as="geometry">
            <mxPoint x="-5" y="1572" as="sourcePoint" />
            <mxPoint x="216" y="1628" as="targetPoint" />
          </mxGeometry>
        </mxCell>
        <mxCell id="dlFD4GKLPnzRUDV24L1j-78" value="" style="edgeStyle=entityRelationEdgeStyle;fontSize=12;html=1;endArrow=ERzeroToMany;endFill=1;rounded=0;exitX=1;exitY=0.5;exitDx=0;exitDy=0;entryX=0;entryY=0.5;entryDx=0;entryDy=0;labelBackgroundColor=none;strokeColor=#F7F7F7;fontColor=#FFFFFF;" parent="1" source="LJ9FQ1QA-3XyvPOc_EC1-2" target="LJ9FQ1QA-3XyvPOc_EC1-72" edge="1">
          <mxGeometry width="100" height="100" relative="1" as="geometry">
            <mxPoint x="-33" y="1355" as="sourcePoint" />
            <mxPoint x="30" y="1470" as="targetPoint" />
          </mxGeometry>
        </mxCell>
        <mxCell id="dlFD4GKLPnzRUDV24L1j-82" value="" style="edgeStyle=entityRelationEdgeStyle;fontSize=12;html=1;endArrow=ERoneToMany;rounded=0;exitX=1;exitY=0.5;exitDx=0;exitDy=0;entryX=0;entryY=0.5;entryDx=0;entryDy=0;labelBackgroundColor=none;strokeColor=#F7F7F7;fontColor=#FFFFFF;" parent="1" source="imXE-3EiVJiVhP0i6caD-8" target="LJ9FQ1QA-3XyvPOc_EC1-85" edge="1">
          <mxGeometry width="100" height="100" relative="1" as="geometry">
            <mxPoint x="488" y="1809" as="sourcePoint" />
            <mxPoint x="588" y="1709" as="targetPoint" />
          </mxGeometry>
        </mxCell>
        <mxCell id="dlFD4GKLPnzRUDV24L1j-92" value="" style="edgeStyle=entityRelationEdgeStyle;fontSize=12;html=1;endArrow=ERzeroToMany;endFill=1;rounded=0;exitX=1;exitY=0.5;exitDx=0;exitDy=0;entryX=0;entryY=0.5;entryDx=0;entryDy=0;labelBackgroundColor=none;strokeColor=#F7F7F7;fontColor=#FFFFFF;" parent="1" source="EIIiDots0ujYCdvbNFb_-23" target="LJ9FQ1QA-3XyvPOc_EC1-91" edge="1">
          <mxGeometry width="100" height="100" relative="1" as="geometry">
            <mxPoint x="-5" y="1722" as="sourcePoint" />
            <mxPoint x="218" y="1807" as="targetPoint" />
          </mxGeometry>
        </mxCell>
        <mxCell id="7NTQfHdv-c0_mRTdxlQH-2" value="" style="edgeStyle=entityRelationEdgeStyle;fontSize=12;html=1;endArrow=ERmandOne;startArrow=ERmandOne;rounded=0;exitX=1;exitY=0.5;exitDx=0;exitDy=0;entryX=0;entryY=0.5;entryDx=0;entryDy=0;labelBackgroundColor=none;strokeColor=#F7F7F7;fontColor=#FFFFFF;" parent="1" source="Xvhyz3b4iZI3sDWrhulA-1" target="LJ9FQ1QA-3XyvPOc_EC1-46" edge="1">
          <mxGeometry width="100" height="100" relative="1" as="geometry">
            <mxPoint x="7" y="1221" as="sourcePoint" />
            <mxPoint x="124" y="1387" as="targetPoint" />
          </mxGeometry>
        </mxCell>
        <mxCell id="imXE-3EiVJiVhP0i6caD-1" value="State" style="ellipse;whiteSpace=wrap;html=1;strokeColor=#E8E8E8;fontColor=#FFFFFF;fillColor=#000000;" parent="1" vertex="1">
          <mxGeometry x="58" y="346" width="120" height="80" as="geometry" />
        </mxCell>
        <mxCell id="imXE-3EiVJiVhP0i6caD-2" value="" style="endArrow=none;html=1;rounded=0;exitX=0.5;exitY=0;exitDx=0;exitDy=0;entryX=0;entryY=0.5;entryDx=0;entryDy=0;strokeColor=#F5F5F5;fontColor=#050505;" parent="1" source="imXE-3EiVJiVhP0i6caD-1" target="sYMvWRUio1NoobQAcl4x-10" edge="1">
          <mxGeometry width="50" height="50" relative="1" as="geometry">
            <mxPoint x="337" y="342" as="sourcePoint" />
            <mxPoint x="387" y="292" as="targetPoint" />
          </mxGeometry>
        </mxCell>
        <mxCell id="imXE-3EiVJiVhP0i6caD-3" value="DeliveryDate" style="ellipse;whiteSpace=wrap;html=1;strokeColor=#E8E8E8;fontColor=#FFFFFF;fillColor=#000000;" parent="1" vertex="1">
          <mxGeometry x="70" y="227" width="120" height="80" as="geometry" />
        </mxCell>
        <mxCell id="imXE-3EiVJiVhP0i6caD-4" value="" style="endArrow=none;html=1;rounded=0;exitX=1;exitY=0.5;exitDx=0;exitDy=0;entryX=0;entryY=0;entryDx=0;entryDy=0;strokeColor=#F5F5F5;fontColor=#050505;" parent="1" source="imXE-3EiVJiVhP0i6caD-3" target="sYMvWRUio1NoobQAcl4x-10" edge="1">
          <mxGeometry width="50" height="50" relative="1" as="geometry">
            <mxPoint x="282" y="361" as="sourcePoint" />
            <mxPoint x="332" y="311" as="targetPoint" />
          </mxGeometry>
        </mxCell>
        <mxCell id="imXE-3EiVJiVhP0i6caD-13" value="" style="edgeStyle=entityRelationEdgeStyle;fontSize=12;html=1;endArrow=ERoneToMany;rounded=0;exitX=1;exitY=0.5;exitDx=0;exitDy=0;entryX=0;entryY=0.5;entryDx=0;entryDy=0;labelBackgroundColor=none;strokeColor=#F7F7F7;fontColor=#FFFFFF;" parent="1" source="LJ9FQ1QA-3XyvPOc_EC1-133" target="EIIiDots0ujYCdvbNFb_-23" edge="1">
          <mxGeometry width="100" height="100" relative="1" as="geometry">
            <mxPoint x="-223" y="2010" as="sourcePoint" />
            <mxPoint x="-185" y="1752" as="targetPoint" />
          </mxGeometry>
        </mxCell>
        <mxCell id="S8GQwwqCWWoNfi7QgjSZ-1" value="" style="edgeStyle=entityRelationEdgeStyle;fontSize=12;html=1;endArrow=ERzeroToMany;endFill=1;rounded=0;exitX=1;exitY=0.5;exitDx=0;exitDy=0;entryX=0;entryY=0.5;entryDx=0;entryDy=0;labelBackgroundColor=none;strokeColor=#F7F7F7;fontColor=#FFFFFF;" parent="1" source="t15vQ16V7PW18Sh4I3XP-14" target="EIIiDots0ujYCdvbNFb_-5" edge="1">
          <mxGeometry width="100" height="100" relative="1" as="geometry">
            <mxPoint x="-84" y="1600" as="sourcePoint" />
            <mxPoint x="-185" y="1542" as="targetPoint" />
          </mxGeometry>
        </mxCell>
        <mxCell id="4X9SDFI6TMDCrNIGfnFM-1" value="Comment" style="ellipse;whiteSpace=wrap;html=1;strokeColor=#E8E8E8;fontColor=#FFFFFF;fillColor=#000000;" parent="1" vertex="1">
          <mxGeometry x="433" y="188" width="120" height="80" as="geometry" />
        </mxCell>
        <mxCell id="4X9SDFI6TMDCrNIGfnFM-2" value="" style="endArrow=none;html=1;rounded=0;exitX=0.75;exitY=0;exitDx=0;exitDy=0;entryX=0;entryY=1;entryDx=0;entryDy=0;strokeColor=#F5F5F5;fontColor=#050505;" parent="1" source="sYMvWRUio1NoobQAcl4x-10" target="4X9SDFI6TMDCrNIGfnFM-1" edge="1">
          <mxGeometry width="50" height="50" relative="1" as="geometry">
            <mxPoint x="493" y="252" as="sourcePoint" />
            <mxPoint x="543" y="202" as="targetPoint" />
          </mxGeometry>
        </mxCell>
        <mxCell id="pzwnQ0l9IbrIhgySzSWd-19" style="edgeStyle=orthogonalEdgeStyle;rounded=0;orthogonalLoop=1;jettySize=auto;html=1;entryX=0.5;entryY=0;entryDx=0;entryDy=0;labelBorderColor=none;fontColor=#FFFFFF;labelBackgroundColor=#FFFFFF;strokeColor=#FFFFFF;" parent="1" source="pzwnQ0l9IbrIhgySzSWd-1" target="pzwnQ0l9IbrIhgySzSWd-8" edge="1">
          <mxGeometry relative="1" as="geometry" />
        </mxCell>
        <mxCell id="pzwnQ0l9IbrIhgySzSWd-20" value="hiển thị" style="edgeLabel;html=1;align=center;verticalAlign=middle;resizable=0;points=[];labelBorderColor=none;fontColor=#FFFFFF;labelBackgroundColor=none;" parent="pzwnQ0l9IbrIhgySzSWd-19" vertex="1" connectable="0">
          <mxGeometry x="-0.1843" y="2" relative="1" as="geometry">
            <mxPoint y="-9" as="offset" />
          </mxGeometry>
        </mxCell>
        <mxCell id="pzwnQ0l9IbrIhgySzSWd-27" style="edgeStyle=orthogonalEdgeStyle;rounded=0;orthogonalLoop=1;jettySize=auto;html=1;labelBorderColor=none;fontColor=#FFFFFF;labelBackgroundColor=#FFFFFF;strokeColor=#FFFFFF;" parent="1" source="pzwnQ0l9IbrIhgySzSWd-1" target="pzwnQ0l9IbrIhgySzSWd-9" edge="1">
          <mxGeometry relative="1" as="geometry" />
        </mxCell>
        <mxCell id="pzwnQ0l9IbrIhgySzSWd-1" value="database" style="shape=cylinder3;whiteSpace=wrap;html=1;boundedLbl=1;backgroundOutline=1;size=15;labelBorderColor=none;labelBackgroundColor=none;fillColor=#fa6800;strokeColor=#C73500;fontColor=#000000;" parent="1" vertex="1">
          <mxGeometry x="1221" y="1812" width="60" height="80" as="geometry" />
        </mxCell>
        <mxCell id="pzwnQ0l9IbrIhgySzSWd-12" style="edgeStyle=orthogonalEdgeStyle;rounded=0;orthogonalLoop=1;jettySize=auto;html=1;labelBorderColor=none;fontColor=#FFFFFF;labelBackgroundColor=#FFFFFF;strokeColor=#FFFFFF;" parent="1" source="pzwnQ0l9IbrIhgySzSWd-2" target="pzwnQ0l9IbrIhgySzSWd-9" edge="1">
          <mxGeometry relative="1" as="geometry" />
        </mxCell>
        <mxCell id="pzwnQ0l9IbrIhgySzSWd-2" value="Khach hang&lt;div&gt;&lt;br&gt;&lt;/div&gt;" style="shape=umlActor;verticalLabelPosition=bottom;verticalAlign=top;html=1;outlineConnect=0;labelBorderColor=none;fontColor=#FFFFFF;labelBackgroundColor=none;fillColor=#FFFFFF;strokeColor=#F7F7F7;" parent="1" vertex="1">
          <mxGeometry x="917" y="1959" width="30" height="60" as="geometry" />
        </mxCell>
        <mxCell id="pzwnQ0l9IbrIhgySzSWd-14" style="edgeStyle=orthogonalEdgeStyle;rounded=0;orthogonalLoop=1;jettySize=auto;html=1;entryX=1;entryY=0.5;entryDx=0;entryDy=0;labelBorderColor=none;fontColor=#FFFFFF;labelBackgroundColor=#FFFFFF;strokeColor=#FAFAFA;" parent="1" source="pzwnQ0l9IbrIhgySzSWd-6" target="pzwnQ0l9IbrIhgySzSWd-8" edge="1">
          <mxGeometry relative="1" as="geometry" />
        </mxCell>
        <mxCell id="pzwnQ0l9IbrIhgySzSWd-6" value="Quan tri" style="shape=umlActor;verticalLabelPosition=bottom;verticalAlign=top;html=1;outlineConnect=0;labelBorderColor=none;fontColor=#FFFFFF;labelBackgroundColor=none;strokeColor=#FAFAFA;" parent="1" vertex="1">
          <mxGeometry x="1560" y="1959" width="30" height="60" as="geometry" />
        </mxCell>
        <mxCell id="pzwnQ0l9IbrIhgySzSWd-8" value="Front end Admin" style="rounded=1;whiteSpace=wrap;html=1;labelBorderColor=none;fontColor=#FFFFFF;labelBackgroundColor=none;strokeColor=#FFFFFF;fillColor=#000000;" parent="1" vertex="1">
          <mxGeometry x="1357" y="1959" width="120" height="60" as="geometry" />
        </mxCell>
        <mxCell id="pzwnQ0l9IbrIhgySzSWd-9" value="Front end customer, guest" style="rounded=1;whiteSpace=wrap;html=1;labelBorderColor=none;fontColor=#FFFFFF;labelBackgroundColor=none;strokeColor=#FFFFFF;fillColor=#000000;" parent="1" vertex="1">
          <mxGeometry x="1019" y="1959" width="120" height="60" as="geometry" />
        </mxCell>
        <mxCell id="pzwnQ0l9IbrIhgySzSWd-10" value="Back end" style="whiteSpace=wrap;html=1;aspect=fixed;labelBorderColor=none;fontColor=#FFFFFF;labelBackgroundColor=none;strokeColor=#FFFFFF;fillColor=#000000;" parent="1" vertex="1">
          <mxGeometry x="1211" y="1949" width="80" height="80" as="geometry" />
        </mxCell>
        <mxCell id="pzwnQ0l9IbrIhgySzSWd-11" value="Web app" style="shape=partialRectangle;whiteSpace=wrap;html=1;bottom=1;right=1;left=1;top=0;fillColor=none;routingCenterX=-0.5;labelBorderColor=none;fontColor=#FFFFFF;labelBackgroundColor=none;strokeColor=#FFFFFF;" parent="1" vertex="1">
          <mxGeometry x="1013.5" y="2008" width="475" height="183" as="geometry" />
        </mxCell>
        <mxCell id="pzwnQ0l9IbrIhgySzSWd-13" value="yêu cầu" style="text;html=1;align=center;verticalAlign=middle;resizable=0;points=[];autosize=1;strokeColor=none;fillColor=none;labelBorderColor=none;fontColor=#FFFFFF;labelBackgroundColor=none;" parent="1" vertex="1">
          <mxGeometry x="957" y="1964" width="60" height="26" as="geometry" />
        </mxCell>
        <mxCell id="pzwnQ0l9IbrIhgySzSWd-15" value="thao tác" style="text;html=1;align=center;verticalAlign=middle;resizable=0;points=[];autosize=1;strokeColor=none;fillColor=none;labelBorderColor=none;fontColor=#FFFFFF;labelBackgroundColor=none;" parent="1" vertex="1">
          <mxGeometry x="1488.5" y="1964" width="61" height="26" as="geometry" />
        </mxCell>
        <mxCell id="pzwnQ0l9IbrIhgySzSWd-16" value="" style="endArrow=classic;html=1;rounded=0;exitX=0;exitY=0.5;exitDx=0;exitDy=0;entryX=1;entryY=0.5;entryDx=0;entryDy=0;labelBorderColor=none;fontColor=#FFFFFF;labelBackgroundColor=#FFFFFF;strokeColor=#FFFFFF;" parent="1" source="pzwnQ0l9IbrIhgySzSWd-8" target="pzwnQ0l9IbrIhgySzSWd-10" edge="1">
          <mxGeometry width="50" height="50" relative="1" as="geometry">
            <mxPoint x="1228" y="2024" as="sourcePoint" />
            <mxPoint x="1278" y="1974" as="targetPoint" />
          </mxGeometry>
        </mxCell>
        <mxCell id="pzwnQ0l9IbrIhgySzSWd-18" value="xử lý" style="edgeLabel;html=1;align=center;verticalAlign=middle;resizable=0;points=[];labelBorderColor=none;fontColor=#FFFFFF;labelBackgroundColor=none;" parent="pzwnQ0l9IbrIhgySzSWd-16" vertex="1" connectable="0">
          <mxGeometry x="-0.0283" relative="1" as="geometry">
            <mxPoint x="-1" y="-8" as="offset" />
          </mxGeometry>
        </mxCell>
        <mxCell id="pzwnQ0l9IbrIhgySzSWd-22" value="" style="endArrow=classic;html=1;rounded=0;exitX=1;exitY=0.5;exitDx=0;exitDy=0;entryX=0;entryY=0.5;entryDx=0;entryDy=0;labelBorderColor=none;fontColor=#FFFFFF;labelBackgroundColor=#FFFFFF;strokeColor=#FFFFFF;" parent="1" source="pzwnQ0l9IbrIhgySzSWd-9" target="pzwnQ0l9IbrIhgySzSWd-10" edge="1">
          <mxGeometry width="50" height="50" relative="1" as="geometry">
            <mxPoint x="1228" y="2024" as="sourcePoint" />
            <mxPoint x="1278" y="1974" as="targetPoint" />
          </mxGeometry>
        </mxCell>
        <mxCell id="pzwnQ0l9IbrIhgySzSWd-23" value="xử lý" style="edgeLabel;html=1;align=center;verticalAlign=middle;resizable=0;points=[];labelBorderColor=none;fontColor=#FFFFFF;labelBackgroundColor=none;" parent="pzwnQ0l9IbrIhgySzSWd-22" vertex="1" connectable="0">
          <mxGeometry x="-0.1263" y="3" relative="1" as="geometry">
            <mxPoint x="4" y="-4" as="offset" />
          </mxGeometry>
        </mxCell>
        <mxCell id="pzwnQ0l9IbrIhgySzSWd-24" value="" style="endArrow=classic;html=1;rounded=0;exitX=0.5;exitY=0;exitDx=0;exitDy=0;entryX=0.5;entryY=1;entryDx=0;entryDy=0;entryPerimeter=0;labelBorderColor=none;fontColor=#FFFFFF;labelBackgroundColor=#FFFFFF;strokeColor=#FFFFFF;" parent="1" source="pzwnQ0l9IbrIhgySzSWd-10" target="pzwnQ0l9IbrIhgySzSWd-1" edge="1">
          <mxGeometry width="50" height="50" relative="1" as="geometry">
            <mxPoint x="1228" y="2024" as="sourcePoint" />
            <mxPoint x="1278" y="1974" as="targetPoint" />
          </mxGeometry>
        </mxCell>
        <mxCell id="pzwnQ0l9IbrIhgySzSWd-26" value="Thực hiện lệnh truy vấn" style="text;html=1;align=center;verticalAlign=middle;resizable=0;points=[];autosize=1;strokeColor=none;fillColor=none;labelBorderColor=none;fontColor=#FFFFFF;labelBackgroundColor=none;" parent="1" vertex="1">
          <mxGeometry x="1247" y="1907" width="144" height="26" as="geometry" />
        </mxCell>
        <mxCell id="pzwnQ0l9IbrIhgySzSWd-28" value="hiển thị" style="text;html=1;align=center;verticalAlign=middle;resizable=0;points=[];autosize=1;strokeColor=none;fillColor=none;labelBorderColor=none;fontColor=#FFFFFF;labelBackgroundColor=none;" parent="1" vertex="1">
          <mxGeometry x="1076" y="1827" width="57" height="26" as="geometry" />
        </mxCell>
        <mxCell id="rFDq4xrJXjMDubLh5kAa-1" value="Blazor Web" style="rounded=1;whiteSpace=wrap;html=1;strokeColor=#FFFFFF;fontColor=#FFFFFF;fillColor=#000000;" parent="1" vertex="1">
          <mxGeometry x="1181" y="-571" width="120" height="60" as="geometry" />
        </mxCell>
        <mxCell id="rFDq4xrJXjMDubLh5kAa-9" value="API" style="rounded=1;whiteSpace=wrap;html=1;strokeColor=#FFFFFF;fontColor=#FFFFFF;fillColor=#000000;" parent="1" vertex="1">
          <mxGeometry x="1181" y="-799" width="120" height="60" as="geometry" />
        </mxCell>
        <mxCell id="rFDq4xrJXjMDubLh5kAa-10" value="" style="endArrow=classic;html=1;rounded=0;exitX=0.25;exitY=1;exitDx=0;exitDy=0;entryX=0.25;entryY=0;entryDx=0;entryDy=0;strokeColor=#FFFFFF;fontColor=#FFFFFF;" parent="1" source="rFDq4xrJXjMDubLh5kAa-9" target="rFDq4xrJXjMDubLh5kAa-1" edge="1">
          <mxGeometry width="50" height="50" relative="1" as="geometry">
            <mxPoint x="1428.5" y="-692" as="sourcePoint" />
            <mxPoint x="1331" y="-663" as="targetPoint" />
          </mxGeometry>
        </mxCell>
        <mxCell id="rFDq4xrJXjMDubLh5kAa-11" value="Query" style="text;html=1;align=center;verticalAlign=middle;resizable=0;points=[];autosize=1;strokeColor=none;fillColor=none;labelBackgroundColor=none;labelBorderColor=none;fontColor=#FFFFFF;" parent="1" vertex="1">
          <mxGeometry x="1326" y="-768" width="51" height="26" as="geometry" />
        </mxCell>
        <mxCell id="rFDq4xrJXjMDubLh5kAa-14" value="" style="endArrow=classic;html=1;rounded=0;exitX=1;exitY=0.5;exitDx=0;exitDy=0;strokeColor=#FFFFFF;fontColor=#FFFFFF;entryX=0;entryY=0.538;entryDx=0;entryDy=0;entryPerimeter=0;" parent="1" source="rFDq4xrJXjMDubLh5kAa-9" edge="1" target="62aCdoZqx1ojKnXyHQOF-2">
          <mxGeometry width="50" height="50" relative="1" as="geometry">
            <mxPoint x="1227" y="-607" as="sourcePoint" />
            <mxPoint x="1396" y="-769" as="targetPoint" />
          </mxGeometry>
        </mxCell>
        <mxCell id="rFDq4xrJXjMDubLh5kAa-15" value="Response" style="text;html=1;align=center;verticalAlign=middle;resizable=0;points=[];autosize=1;strokeColor=none;fillColor=none;labelBackgroundColor=none;labelBorderColor=none;fontColor=#FFFFFF;" parent="1" vertex="1">
          <mxGeometry x="1142" y="-676" width="72" height="26" as="geometry" />
        </mxCell>
        <mxCell id="rFDq4xrJXjMDubLh5kAa-19" value="" style="endArrow=classic;html=1;rounded=0;exitX=0.75;exitY=0;exitDx=0;exitDy=0;entryX=0.75;entryY=1;entryDx=0;entryDy=0;strokeColor=#FFFFFF;fontColor=#FFFFFF;" parent="1" source="rFDq4xrJXjMDubLh5kAa-1" target="rFDq4xrJXjMDubLh5kAa-9" edge="1">
          <mxGeometry width="50" height="50" relative="1" as="geometry">
            <mxPoint x="1251" y="-519" as="sourcePoint" />
            <mxPoint x="1428.5" y="-632" as="targetPoint" />
          </mxGeometry>
        </mxCell>
        <mxCell id="rFDq4xrJXjMDubLh5kAa-20" value="Request" style="text;html=1;align=center;verticalAlign=middle;whiteSpace=wrap;rounded=0;strokeColor=none;labelBackgroundColor=none;labelBorderColor=none;fontColor=#FFFFFF;" parent="1" vertex="1">
          <mxGeometry x="1272" y="-635" width="60" height="30" as="geometry" />
        </mxCell>
        <mxCell id="DpA-v9cX5V6VYGjD_ToB-1" value="Level" style="ellipse;whiteSpace=wrap;html=1;strokeColor=#E8E8E8;fontColor=#FFFFFF;fillColor=#000000;" parent="1" vertex="1">
          <mxGeometry x="651" y="373" width="120" height="80" as="geometry" />
        </mxCell>
        <mxCell id="DpA-v9cX5V6VYGjD_ToB-2" value="" style="endArrow=none;html=1;rounded=0;exitX=0.5;exitY=0;exitDx=0;exitDy=0;entryX=0.5;entryY=1;entryDx=0;entryDy=0;strokeColor=#F5F5F5;fontColor=#050505;" parent="1" source="sYMvWRUio1NoobQAcl4x-3" target="DpA-v9cX5V6VYGjD_ToB-1" edge="1">
          <mxGeometry width="50" height="50" relative="1" as="geometry">
            <mxPoint x="567" y="450" as="sourcePoint" />
            <mxPoint x="617" y="400" as="targetPoint" />
          </mxGeometry>
        </mxCell>
        <mxCell id="KTiCrctCKgIO_f6w7qmm-1" value="PaymentMethod" style="ellipse;whiteSpace=wrap;html=1;strokeColor=#E8E8E8;fontColor=#FFFFFF;fillColor=#000000;" parent="1" vertex="1">
          <mxGeometry x="114" y="457" width="120" height="80" as="geometry" />
        </mxCell>
        <mxCell id="KTiCrctCKgIO_f6w7qmm-2" value="" style="endArrow=none;html=1;rounded=0;entryX=0.25;entryY=1;entryDx=0;entryDy=0;exitX=1;exitY=0;exitDx=0;exitDy=0;strokeColor=#F5F5F5;fontColor=#050505;" parent="1" source="KTiCrctCKgIO_f6w7qmm-1" target="sYMvWRUio1NoobQAcl4x-10" edge="1">
          <mxGeometry width="50" height="50" relative="1" as="geometry">
            <mxPoint x="16" y="552" as="sourcePoint" />
            <mxPoint x="66" y="502" as="targetPoint" />
          </mxGeometry>
        </mxCell>
        <mxCell id="6aSUM1rbd1WRh39qAGVx-15" value="Guest" style="rounded=1;whiteSpace=wrap;html=1;strokeColor=#E8E8E8;fontColor=#FFFFFF;fillColor=#000000;" parent="1" vertex="1">
          <mxGeometry x="313" y="-13" width="120" height="60" as="geometry" />
        </mxCell>
        <mxCell id="6aSUM1rbd1WRh39qAGVx-16" value="" style="endArrow=none;html=1;rounded=0;exitX=1;exitY=0.5;exitDx=0;exitDy=0;entryX=0.25;entryY=0;entryDx=0;entryDy=0;strokeColor=#E8E8E8;fontColor=#FFFFFF;" parent="1" source="6aSUM1rbd1WRh39qAGVx-15" target="WLxla5kFX-Y7wtaZwMnV-6" edge="1">
          <mxGeometry width="50" height="50" relative="1" as="geometry">
            <mxPoint x="444" y="-44" as="sourcePoint" />
            <mxPoint x="494" y="-94" as="targetPoint" />
          </mxGeometry>
        </mxCell>
        <mxCell id="6aSUM1rbd1WRh39qAGVx-17" value="" style="endArrow=none;html=1;rounded=0;exitX=0.25;exitY=1;exitDx=0;exitDy=0;entryX=0.5;entryY=0;entryDx=0;entryDy=0;strokeColor=#F5F5F5;fontColor=#050505;" parent="1" source="6aSUM1rbd1WRh39qAGVx-15" target="sYMvWRUio1NoobQAcl4x-10" edge="1">
          <mxGeometry width="50" height="50" relative="1" as="geometry">
            <mxPoint x="353" y="-38" as="sourcePoint" />
            <mxPoint x="403" y="-88" as="targetPoint" />
          </mxGeometry>
        </mxCell>
        <mxCell id="6aSUM1rbd1WRh39qAGVx-31" value="Guest" style="shape=table;startSize=30;container=1;collapsible=1;childLayout=tableLayout;fixedRows=1;rowLines=0;fontStyle=1;align=center;resizeLast=1;html=1;whiteSpace=wrap;labelBackgroundColor=none;fontColor=#FFFFFF;fillColor=#000000;strokeColor=#FFFFFF;" parent="1" vertex="1">
          <mxGeometry x="463" y="1191" width="180" height="210" as="geometry" />
        </mxCell>
        <mxCell id="6aSUM1rbd1WRh39qAGVx-32" value="" style="shape=tableRow;horizontal=0;startSize=0;swimlaneHead=0;swimlaneBody=0;collapsible=0;dropTarget=0;points=[[0,0.5],[1,0.5]];portConstraint=eastwest;top=0;left=0;right=0;bottom=0;html=1;labelBackgroundColor=none;fontColor=#FFFFFF;fillColor=#FFFFFF;strokeColor=#FFFFFF;" parent="6aSUM1rbd1WRh39qAGVx-31" vertex="1">
          <mxGeometry y="30" width="180" height="30" as="geometry" />
        </mxCell>
        <mxCell id="6aSUM1rbd1WRh39qAGVx-33" value="PK" style="shape=partialRectangle;connectable=0;top=0;left=0;bottom=0;right=0;fontStyle=1;overflow=hidden;html=1;whiteSpace=wrap;labelBackgroundColor=none;fontColor=#FFFFFF;fillColor=#000000;" parent="6aSUM1rbd1WRh39qAGVx-32" vertex="1">
          <mxGeometry width="60" height="30" as="geometry">
            <mxRectangle width="60" height="30" as="alternateBounds" />
          </mxGeometry>
        </mxCell>
        <mxCell id="6aSUM1rbd1WRh39qAGVx-34" value="Id" style="shape=partialRectangle;connectable=0;top=0;left=0;bottom=0;right=0;align=left;spacingLeft=6;fontStyle=5;overflow=hidden;html=1;whiteSpace=wrap;labelBackgroundColor=none;fontColor=#FFFFFF;fillColor=#000000;" parent="6aSUM1rbd1WRh39qAGVx-32" vertex="1">
          <mxGeometry x="60" width="120" height="30" as="geometry">
            <mxRectangle width="120" height="30" as="alternateBounds" />
          </mxGeometry>
        </mxCell>
        <mxCell id="6aSUM1rbd1WRh39qAGVx-44" value="" style="shape=tableRow;horizontal=0;startSize=0;swimlaneHead=0;swimlaneBody=0;collapsible=0;dropTarget=0;points=[[0,0.5],[1,0.5]];portConstraint=eastwest;top=0;left=0;right=0;bottom=0;labelBackgroundColor=none;fontColor=#FFFFFF;fillColor=#FFFFFF;strokeColor=#FFFFFF;" parent="6aSUM1rbd1WRh39qAGVx-31" vertex="1">
          <mxGeometry y="60" width="180" height="30" as="geometry" />
        </mxCell>
        <mxCell id="6aSUM1rbd1WRh39qAGVx-45" value="FK" style="shape=partialRectangle;connectable=0;top=0;left=0;bottom=0;right=0;fontStyle=0;overflow=hidden;whiteSpace=wrap;html=1;labelBackgroundColor=none;fontColor=#FFFFFF;fillColor=#000000;" parent="6aSUM1rbd1WRh39qAGVx-44" vertex="1">
          <mxGeometry width="60" height="30" as="geometry">
            <mxRectangle width="60" height="30" as="alternateBounds" />
          </mxGeometry>
        </mxCell>
        <mxCell id="6aSUM1rbd1WRh39qAGVx-46" value="OrderCode" style="shape=partialRectangle;connectable=0;top=0;left=0;bottom=0;right=0;align=left;spacingLeft=6;fontStyle=0;overflow=hidden;whiteSpace=wrap;html=1;labelBackgroundColor=none;fontColor=#FFFFFF;fillColor=#000000;" parent="6aSUM1rbd1WRh39qAGVx-44" vertex="1">
          <mxGeometry x="60" width="120" height="30" as="geometry">
            <mxRectangle width="120" height="30" as="alternateBounds" />
          </mxGeometry>
        </mxCell>
        <mxCell id="6aSUM1rbd1WRh39qAGVx-35" value="" style="shape=tableRow;horizontal=0;startSize=0;swimlaneHead=0;swimlaneBody=0;collapsible=0;dropTarget=0;points=[[0,0.5],[1,0.5]];portConstraint=eastwest;top=0;left=0;right=0;bottom=1;html=1;labelBackgroundColor=none;fontColor=#FFFFFF;fillColor=#FFFFFF;strokeColor=#FFFFFF;" parent="6aSUM1rbd1WRh39qAGVx-31" vertex="1">
          <mxGeometry y="90" width="180" height="30" as="geometry" />
        </mxCell>
        <mxCell id="6aSUM1rbd1WRh39qAGVx-36" value="FK" style="shape=partialRectangle;connectable=0;top=0;left=0;bottom=0;right=0;fontStyle=1;overflow=hidden;html=1;whiteSpace=wrap;labelBackgroundColor=none;fontColor=#FFFFFF;fillColor=#000000;" parent="6aSUM1rbd1WRh39qAGVx-35" vertex="1">
          <mxGeometry width="60" height="30" as="geometry">
            <mxRectangle width="60" height="30" as="alternateBounds" />
          </mxGeometry>
        </mxCell>
        <mxCell id="6aSUM1rbd1WRh39qAGVx-37" value="CInforId" style="shape=partialRectangle;connectable=0;top=0;left=0;bottom=0;right=0;align=left;spacingLeft=6;fontStyle=5;overflow=hidden;html=1;whiteSpace=wrap;labelBackgroundColor=none;fontColor=#FFFFFF;fillColor=#000000;" parent="6aSUM1rbd1WRh39qAGVx-35" vertex="1">
          <mxGeometry x="60" width="120" height="30" as="geometry">
            <mxRectangle width="120" height="30" as="alternateBounds" />
          </mxGeometry>
        </mxCell>
        <mxCell id="fqim4iLzW1bLyYT461WW-18" value="" style="shape=tableRow;horizontal=0;startSize=0;swimlaneHead=0;swimlaneBody=0;collapsible=0;dropTarget=0;points=[[0,0.5],[1,0.5]];portConstraint=eastwest;top=0;left=0;right=0;bottom=0;labelBackgroundColor=none;fontColor=#FFFFFF;fillColor=#FFFFFF;strokeColor=#FFFFFF;" parent="6aSUM1rbd1WRh39qAGVx-31" vertex="1">
          <mxGeometry y="120" width="180" height="30" as="geometry" />
        </mxCell>
        <mxCell id="fqim4iLzW1bLyYT461WW-19" value="" style="shape=partialRectangle;connectable=0;top=0;left=0;bottom=0;right=0;editable=1;overflow=hidden;labelBackgroundColor=none;fontColor=#FFFFFF;fillColor=#000000;" parent="fqim4iLzW1bLyYT461WW-18" vertex="1">
          <mxGeometry width="60" height="30" as="geometry">
            <mxRectangle width="60" height="30" as="alternateBounds" />
          </mxGeometry>
        </mxCell>
        <mxCell id="fqim4iLzW1bLyYT461WW-20" value="Name" style="shape=partialRectangle;connectable=0;top=0;left=0;bottom=0;right=0;align=left;spacingLeft=6;overflow=hidden;labelBackgroundColor=none;fontColor=#FFFFFF;fillColor=#000000;" parent="fqim4iLzW1bLyYT461WW-18" vertex="1">
          <mxGeometry x="60" width="120" height="30" as="geometry">
            <mxRectangle width="120" height="30" as="alternateBounds" />
          </mxGeometry>
        </mxCell>
        <mxCell id="fqim4iLzW1bLyYT461WW-24" value="" style="shape=tableRow;horizontal=0;startSize=0;swimlaneHead=0;swimlaneBody=0;collapsible=0;dropTarget=0;points=[[0,0.5],[1,0.5]];portConstraint=eastwest;top=0;left=0;right=0;bottom=0;labelBackgroundColor=none;fontColor=#FFFFFF;fillColor=#FFFFFF;strokeColor=#FFFFFF;" parent="6aSUM1rbd1WRh39qAGVx-31" vertex="1">
          <mxGeometry y="150" width="180" height="30" as="geometry" />
        </mxCell>
        <mxCell id="fqim4iLzW1bLyYT461WW-25" value="" style="shape=partialRectangle;connectable=0;top=0;left=0;bottom=0;right=0;editable=1;overflow=hidden;labelBackgroundColor=none;fontColor=#FFFFFF;fillColor=#000000;" parent="fqim4iLzW1bLyYT461WW-24" vertex="1">
          <mxGeometry width="60" height="30" as="geometry">
            <mxRectangle width="60" height="30" as="alternateBounds" />
          </mxGeometry>
        </mxCell>
        <mxCell id="fqim4iLzW1bLyYT461WW-26" value="PhoneNumber" style="shape=partialRectangle;connectable=0;top=0;left=0;bottom=0;right=0;align=left;spacingLeft=6;overflow=hidden;labelBackgroundColor=none;fontColor=#FFFFFF;fillColor=#000000;" parent="fqim4iLzW1bLyYT461WW-24" vertex="1">
          <mxGeometry x="60" width="120" height="30" as="geometry">
            <mxRectangle width="120" height="30" as="alternateBounds" />
          </mxGeometry>
        </mxCell>
        <mxCell id="fqim4iLzW1bLyYT461WW-21" value="" style="shape=tableRow;horizontal=0;startSize=0;swimlaneHead=0;swimlaneBody=0;collapsible=0;dropTarget=0;points=[[0,0.5],[1,0.5]];portConstraint=eastwest;top=0;left=0;right=0;bottom=0;labelBackgroundColor=none;fontColor=#FFFFFF;fillColor=#FFFFFF;strokeColor=#FFFFFF;" parent="6aSUM1rbd1WRh39qAGVx-31" vertex="1">
          <mxGeometry y="180" width="180" height="30" as="geometry" />
        </mxCell>
        <mxCell id="fqim4iLzW1bLyYT461WW-22" value="" style="shape=partialRectangle;connectable=0;top=0;left=0;bottom=0;right=0;editable=1;overflow=hidden;labelBackgroundColor=none;fontColor=#FFFFFF;fillColor=#000000;" parent="fqim4iLzW1bLyYT461WW-21" vertex="1">
          <mxGeometry width="60" height="30" as="geometry">
            <mxRectangle width="60" height="30" as="alternateBounds" />
          </mxGeometry>
        </mxCell>
        <mxCell id="fqim4iLzW1bLyYT461WW-23" value="Address" style="shape=partialRectangle;connectable=0;top=0;left=0;bottom=0;right=0;align=left;spacingLeft=6;overflow=hidden;labelBackgroundColor=none;fontColor=#FFFFFF;fillColor=#000000;" parent="fqim4iLzW1bLyYT461WW-21" vertex="1">
          <mxGeometry x="60" width="120" height="30" as="geometry">
            <mxRectangle width="120" height="30" as="alternateBounds" />
          </mxGeometry>
        </mxCell>
        <mxCell id="6aSUM1rbd1WRh39qAGVx-47" value="Id" style="ellipse;whiteSpace=wrap;html=1;strokeColor=#E8E8E8;fontColor=#FFFFFF;fillColor=#000000;" parent="1" vertex="1">
          <mxGeometry x="373" y="-210" width="120" height="80" as="geometry" />
        </mxCell>
        <mxCell id="6aSUM1rbd1WRh39qAGVx-48" value="" style="endArrow=none;html=1;rounded=0;exitX=0.5;exitY=0;exitDx=0;exitDy=0;entryX=0.619;entryY=0.995;entryDx=0;entryDy=0;entryPerimeter=0;strokeColor=#F5F5F5;fontColor=#050505;" parent="1" source="6aSUM1rbd1WRh39qAGVx-15" target="6aSUM1rbd1WRh39qAGVx-47" edge="1">
          <mxGeometry width="50" height="50" relative="1" as="geometry">
            <mxPoint x="278" y="-71" as="sourcePoint" />
            <mxPoint x="328" y="-121" as="targetPoint" />
          </mxGeometry>
        </mxCell>
        <mxCell id="6aSUM1rbd1WRh39qAGVx-50" value="" style="edgeStyle=entityRelationEdgeStyle;fontSize=12;html=1;endArrow=ERmandOne;rounded=0;exitX=0;exitY=0.5;exitDx=0;exitDy=0;entryX=1;entryY=0.5;entryDx=0;entryDy=0;labelBackgroundColor=none;strokeColor=#F7F7F7;fontColor=#FFFFFF;" parent="1" source="6aSUM1rbd1WRh39qAGVx-35" target="LJ9FQ1QA-3XyvPOc_EC1-75" edge="1">
          <mxGeometry width="100" height="100" relative="1" as="geometry">
            <mxPoint x="527" y="1475" as="sourcePoint" />
            <mxPoint x="310" y="1461" as="targetPoint" />
          </mxGeometry>
        </mxCell>
        <mxCell id="EIIiDots0ujYCdvbNFb_-1" value="Food" style="shape=table;startSize=30;container=1;collapsible=1;childLayout=tableLayout;fixedRows=1;rowLines=0;fontStyle=1;align=center;resizeLast=1;html=1;labelBackgroundColor=none;fontColor=#FFFFFF;fillColor=#050505;strokeColor=#FFFFFF;" parent="1" vertex="1">
          <mxGeometry x="-282" y="1393" width="180" height="300" as="geometry" />
        </mxCell>
        <mxCell id="EIIiDots0ujYCdvbNFb_-2" value="" style="shape=tableRow;horizontal=0;startSize=0;swimlaneHead=0;swimlaneBody=0;collapsible=0;dropTarget=0;points=[[0,0.5],[1,0.5]];portConstraint=eastwest;top=0;left=0;right=0;bottom=0;labelBackgroundColor=none;fontColor=#FFFFFF;" parent="EIIiDots0ujYCdvbNFb_-1" vertex="1">
          <mxGeometry y="30" width="180" height="30" as="geometry" />
        </mxCell>
        <mxCell id="EIIiDots0ujYCdvbNFb_-3" value="" style="shape=partialRectangle;connectable=0;top=0;left=0;bottom=0;right=0;fontStyle=0;overflow=hidden;whiteSpace=wrap;html=1;labelBackgroundColor=none;fontColor=#FFFFFF;fillColor=#000000;" parent="EIIiDots0ujYCdvbNFb_-2" vertex="1">
          <mxGeometry width="30" height="30" as="geometry">
            <mxRectangle width="30" height="30" as="alternateBounds" />
          </mxGeometry>
        </mxCell>
        <mxCell id="EIIiDots0ujYCdvbNFb_-4" value="FoodName" style="shape=partialRectangle;connectable=0;top=0;left=0;bottom=0;right=0;align=left;spacingLeft=6;fontStyle=0;overflow=hidden;whiteSpace=wrap;html=1;labelBackgroundColor=none;fontColor=#FFFFFF;fillColor=#000000;" parent="EIIiDots0ujYCdvbNFb_-2" vertex="1">
          <mxGeometry x="30" width="150" height="30" as="geometry">
            <mxRectangle width="150" height="30" as="alternateBounds" />
          </mxGeometry>
        </mxCell>
        <mxCell id="ecnWHv18xueehS3N32TR-1" value="" style="shape=tableRow;horizontal=0;startSize=0;swimlaneHead=0;swimlaneBody=0;collapsible=0;dropTarget=0;points=[[0,0.5],[1,0.5]];portConstraint=eastwest;top=0;left=0;right=0;bottom=0;labelBackgroundColor=none;fontColor=#FFFFFF;" parent="EIIiDots0ujYCdvbNFb_-1" vertex="1">
          <mxGeometry y="60" width="180" height="30" as="geometry" />
        </mxCell>
        <mxCell id="ecnWHv18xueehS3N32TR-2" value="FK" style="shape=partialRectangle;connectable=0;top=0;left=0;bottom=0;right=0;fontStyle=0;overflow=hidden;whiteSpace=wrap;html=1;labelBackgroundColor=none;fontColor=#FFFFFF;fillColor=#000000;" parent="ecnWHv18xueehS3N32TR-1" vertex="1">
          <mxGeometry width="30" height="30" as="geometry">
            <mxRectangle width="30" height="30" as="alternateBounds" />
          </mxGeometry>
        </mxCell>
        <mxCell id="ecnWHv18xueehS3N32TR-3" value="FCategoryCode" style="shape=partialRectangle;connectable=0;top=0;left=0;bottom=0;right=0;align=left;spacingLeft=6;fontStyle=0;overflow=hidden;whiteSpace=wrap;html=1;labelBackgroundColor=none;fontColor=#FFFFFF;fillColor=#000000;" parent="ecnWHv18xueehS3N32TR-1" vertex="1">
          <mxGeometry x="30" width="150" height="30" as="geometry">
            <mxRectangle width="150" height="30" as="alternateBounds" />
          </mxGeometry>
        </mxCell>
        <mxCell id="ecnWHv18xueehS3N32TR-4" value="" style="shape=tableRow;horizontal=0;startSize=0;swimlaneHead=0;swimlaneBody=0;collapsible=0;dropTarget=0;points=[[0,0.5],[1,0.5]];portConstraint=eastwest;top=0;left=0;right=0;bottom=0;labelBackgroundColor=none;fontColor=#FFFFFF;" parent="EIIiDots0ujYCdvbNFb_-1" vertex="1">
          <mxGeometry y="90" width="180" height="30" as="geometry" />
        </mxCell>
        <mxCell id="ecnWHv18xueehS3N32TR-5" value="FK" style="shape=partialRectangle;connectable=0;top=0;left=0;bottom=0;right=0;fontStyle=0;overflow=hidden;whiteSpace=wrap;html=1;labelBackgroundColor=none;fontColor=#FFFFFF;fillColor=#000000;" parent="ecnWHv18xueehS3N32TR-4" vertex="1">
          <mxGeometry width="30" height="30" as="geometry">
            <mxRectangle width="30" height="30" as="alternateBounds" />
          </mxGeometry>
        </mxCell>
        <mxCell id="ecnWHv18xueehS3N32TR-6" value="AdminCode" style="shape=partialRectangle;connectable=0;top=0;left=0;bottom=0;right=0;align=left;spacingLeft=6;fontStyle=0;overflow=hidden;whiteSpace=wrap;html=1;labelBackgroundColor=none;fontColor=#FFFFFF;fillColor=#000000;" parent="ecnWHv18xueehS3N32TR-4" vertex="1">
          <mxGeometry x="30" width="150" height="30" as="geometry">
            <mxRectangle width="150" height="30" as="alternateBounds" />
          </mxGeometry>
        </mxCell>
        <mxCell id="EIIiDots0ujYCdvbNFb_-5" value="" style="shape=tableRow;horizontal=0;startSize=0;swimlaneHead=0;swimlaneBody=0;collapsible=0;dropTarget=0;points=[[0,0.5],[1,0.5]];portConstraint=eastwest;top=0;left=0;right=0;bottom=1;labelBackgroundColor=none;fontColor=#FFFFFF;" parent="EIIiDots0ujYCdvbNFb_-1" vertex="1">
          <mxGeometry y="120" width="180" height="30" as="geometry" />
        </mxCell>
        <mxCell id="EIIiDots0ujYCdvbNFb_-6" value="PK" style="shape=partialRectangle;connectable=0;top=0;left=0;bottom=0;right=0;fontStyle=1;overflow=hidden;whiteSpace=wrap;html=1;labelBackgroundColor=none;fontColor=#FFFFFF;fillColor=#000000;" parent="EIIiDots0ujYCdvbNFb_-5" vertex="1">
          <mxGeometry width="30" height="30" as="geometry">
            <mxRectangle width="30" height="30" as="alternateBounds" />
          </mxGeometry>
        </mxCell>
        <mxCell id="EIIiDots0ujYCdvbNFb_-7" value="FoodCode" style="shape=partialRectangle;connectable=0;top=0;left=0;bottom=0;right=0;align=left;spacingLeft=6;fontStyle=5;overflow=hidden;whiteSpace=wrap;html=1;labelBackgroundColor=none;fontColor=#FFFFFF;fillColor=#000000;" parent="EIIiDots0ujYCdvbNFb_-5" vertex="1">
          <mxGeometry x="30" width="150" height="30" as="geometry">
            <mxRectangle width="150" height="30" as="alternateBounds" />
          </mxGeometry>
        </mxCell>
        <mxCell id="EIIiDots0ujYCdvbNFb_-8" value="" style="shape=tableRow;horizontal=0;startSize=0;swimlaneHead=0;swimlaneBody=0;collapsible=0;dropTarget=0;points=[[0,0.5],[1,0.5]];portConstraint=eastwest;top=0;left=0;right=0;bottom=0;labelBackgroundColor=none;fontColor=#FFFFFF;" parent="EIIiDots0ujYCdvbNFb_-1" vertex="1">
          <mxGeometry y="150" width="180" height="30" as="geometry" />
        </mxCell>
        <mxCell id="EIIiDots0ujYCdvbNFb_-9" value="" style="shape=partialRectangle;connectable=0;top=0;left=0;bottom=0;right=0;editable=1;overflow=hidden;whiteSpace=wrap;html=1;labelBackgroundColor=none;fontColor=#FFFFFF;fillColor=#000000;" parent="EIIiDots0ujYCdvbNFb_-8" vertex="1">
          <mxGeometry width="30" height="30" as="geometry">
            <mxRectangle width="30" height="30" as="alternateBounds" />
          </mxGeometry>
        </mxCell>
        <mxCell id="EIIiDots0ujYCdvbNFb_-10" value="CurrentPrice" style="shape=partialRectangle;connectable=0;top=0;left=0;bottom=0;right=0;align=left;spacingLeft=6;overflow=hidden;whiteSpace=wrap;html=1;labelBackgroundColor=none;fontColor=#FFFFFF;fillColor=#000000;" parent="EIIiDots0ujYCdvbNFb_-8" vertex="1">
          <mxGeometry x="30" width="150" height="30" as="geometry">
            <mxRectangle width="150" height="30" as="alternateBounds" />
          </mxGeometry>
        </mxCell>
        <mxCell id="EIIiDots0ujYCdvbNFb_-11" value="" style="shape=tableRow;horizontal=0;startSize=0;swimlaneHead=0;swimlaneBody=0;collapsible=0;dropTarget=0;points=[[0,0.5],[1,0.5]];portConstraint=eastwest;top=0;left=0;right=0;bottom=0;labelBackgroundColor=none;fontColor=#FFFFFF;" parent="EIIiDots0ujYCdvbNFb_-1" vertex="1">
          <mxGeometry y="180" width="180" height="30" as="geometry" />
        </mxCell>
        <mxCell id="EIIiDots0ujYCdvbNFb_-12" value="" style="shape=partialRectangle;connectable=0;top=0;left=0;bottom=0;right=0;editable=1;overflow=hidden;whiteSpace=wrap;html=1;labelBackgroundColor=none;fontColor=#FFFFFF;fillColor=#000000;" parent="EIIiDots0ujYCdvbNFb_-11" vertex="1">
          <mxGeometry width="30" height="30" as="geometry">
            <mxRectangle width="30" height="30" as="alternateBounds" />
          </mxGeometry>
        </mxCell>
        <mxCell id="EIIiDots0ujYCdvbNFb_-13" value="PreviousPrice" style="shape=partialRectangle;connectable=0;top=0;left=0;bottom=0;right=0;align=left;spacingLeft=6;overflow=hidden;whiteSpace=wrap;html=1;labelBackgroundColor=none;fontColor=#FFFFFF;fillColor=#000000;" parent="EIIiDots0ujYCdvbNFb_-11" vertex="1">
          <mxGeometry x="30" width="150" height="30" as="geometry">
            <mxRectangle width="150" height="30" as="alternateBounds" />
          </mxGeometry>
        </mxCell>
        <mxCell id="EIIiDots0ujYCdvbNFb_-20" value="" style="shape=tableRow;horizontal=0;startSize=0;swimlaneHead=0;swimlaneBody=0;collapsible=0;dropTarget=0;points=[[0,0.5],[1,0.5]];portConstraint=eastwest;top=0;left=0;right=0;bottom=0;labelBackgroundColor=none;fontColor=#FFFFFF;" parent="EIIiDots0ujYCdvbNFb_-1" vertex="1">
          <mxGeometry y="210" width="180" height="30" as="geometry" />
        </mxCell>
        <mxCell id="EIIiDots0ujYCdvbNFb_-21" value="" style="shape=partialRectangle;connectable=0;top=0;left=0;bottom=0;right=0;editable=1;overflow=hidden;labelBackgroundColor=none;fontColor=#FFFFFF;fillColor=#000000;" parent="EIIiDots0ujYCdvbNFb_-20" vertex="1">
          <mxGeometry width="30" height="30" as="geometry">
            <mxRectangle width="30" height="30" as="alternateBounds" />
          </mxGeometry>
        </mxCell>
        <mxCell id="EIIiDots0ujYCdvbNFb_-22" value="Image" style="shape=partialRectangle;connectable=0;top=0;left=0;bottom=0;right=0;align=left;spacingLeft=6;overflow=hidden;labelBackgroundColor=none;fontColor=#FFFFFF;fillColor=#000000;" parent="EIIiDots0ujYCdvbNFb_-20" vertex="1">
          <mxGeometry x="30" width="150" height="30" as="geometry">
            <mxRectangle width="150" height="30" as="alternateBounds" />
          </mxGeometry>
        </mxCell>
        <mxCell id="EIIiDots0ujYCdvbNFb_-23" value="" style="shape=tableRow;horizontal=0;startSize=0;swimlaneHead=0;swimlaneBody=0;collapsible=0;dropTarget=0;points=[[0,0.5],[1,0.5]];portConstraint=eastwest;top=0;left=0;right=0;bottom=0;labelBackgroundColor=none;fontColor=#FFFFFF;" parent="EIIiDots0ujYCdvbNFb_-1" vertex="1">
          <mxGeometry y="240" width="180" height="30" as="geometry" />
        </mxCell>
        <mxCell id="EIIiDots0ujYCdvbNFb_-24" value="" style="shape=partialRectangle;connectable=0;top=0;left=0;bottom=0;right=0;editable=1;overflow=hidden;labelBackgroundColor=none;fontColor=#FFFFFF;fillColor=#000000;" parent="EIIiDots0ujYCdvbNFb_-23" vertex="1">
          <mxGeometry width="30" height="30" as="geometry">
            <mxRectangle width="30" height="30" as="alternateBounds" />
          </mxGeometry>
        </mxCell>
        <mxCell id="EIIiDots0ujYCdvbNFb_-25" value="Left" style="shape=partialRectangle;connectable=0;top=0;left=0;bottom=0;right=0;align=left;spacingLeft=6;overflow=hidden;labelBackgroundColor=none;fontColor=#FFFFFF;fillColor=#000000;" parent="EIIiDots0ujYCdvbNFb_-23" vertex="1">
          <mxGeometry x="30" width="150" height="30" as="geometry">
            <mxRectangle width="150" height="30" as="alternateBounds" />
          </mxGeometry>
        </mxCell>
        <mxCell id="EIIiDots0ujYCdvbNFb_-26" value="" style="shape=tableRow;horizontal=0;startSize=0;swimlaneHead=0;swimlaneBody=0;collapsible=0;dropTarget=0;points=[[0,0.5],[1,0.5]];portConstraint=eastwest;top=0;left=0;right=0;bottom=0;labelBackgroundColor=none;fontColor=#FFFFFF;" parent="EIIiDots0ujYCdvbNFb_-1" vertex="1">
          <mxGeometry y="270" width="180" height="30" as="geometry" />
        </mxCell>
        <mxCell id="EIIiDots0ujYCdvbNFb_-27" value="" style="shape=partialRectangle;connectable=0;top=0;left=0;bottom=0;right=0;editable=1;overflow=hidden;labelBackgroundColor=none;fontColor=#FFFFFF;fillColor=#000000;" parent="EIIiDots0ujYCdvbNFb_-26" vertex="1">
          <mxGeometry width="30" height="30" as="geometry">
            <mxRectangle width="30" height="30" as="alternateBounds" />
          </mxGeometry>
        </mxCell>
        <mxCell id="EIIiDots0ujYCdvbNFb_-28" value="Sold" style="shape=partialRectangle;connectable=0;top=0;left=0;bottom=0;right=0;align=left;spacingLeft=6;overflow=hidden;labelBackgroundColor=none;fontColor=#FFFFFF;fillColor=#000000;" parent="EIIiDots0ujYCdvbNFb_-26" vertex="1">
          <mxGeometry x="30" width="150" height="30" as="geometry">
            <mxRectangle width="150" height="30" as="alternateBounds" />
          </mxGeometry>
        </mxCell>
        <mxCell id="EIIiDots0ujYCdvbNFb_-29" value="Combo" style="shape=table;startSize=30;container=1;collapsible=1;childLayout=tableLayout;fixedRows=1;rowLines=0;fontStyle=1;align=center;resizeLast=1;html=1;whiteSpace=wrap;labelBackgroundColor=none;fontColor=#FFFFFF;fillColor=#050505;strokeColor=#FFFFFF;" parent="1" vertex="1">
          <mxGeometry x="-436" y="1768" width="180" height="240" as="geometry" />
        </mxCell>
        <mxCell id="EIIiDots0ujYCdvbNFb_-30" value="" style="shape=tableRow;horizontal=0;startSize=0;swimlaneHead=0;swimlaneBody=0;collapsible=0;dropTarget=0;points=[[0,0.5],[1,0.5]];portConstraint=eastwest;top=0;left=0;right=0;bottom=0;html=1;labelBackgroundColor=none;fontColor=#FFFFFF;" parent="EIIiDots0ujYCdvbNFb_-29" vertex="1">
          <mxGeometry y="30" width="180" height="30" as="geometry" />
        </mxCell>
        <mxCell id="EIIiDots0ujYCdvbNFb_-31" value="PK" style="shape=partialRectangle;connectable=0;top=0;left=0;bottom=0;right=0;fontStyle=1;overflow=hidden;html=1;whiteSpace=wrap;labelBackgroundColor=none;fontColor=#FFFFFF;fillColor=#000000;" parent="EIIiDots0ujYCdvbNFb_-30" vertex="1">
          <mxGeometry width="60" height="30" as="geometry">
            <mxRectangle width="60" height="30" as="alternateBounds" />
          </mxGeometry>
        </mxCell>
        <mxCell id="EIIiDots0ujYCdvbNFb_-32" value="ComboCode" style="shape=partialRectangle;connectable=0;top=0;left=0;bottom=0;right=0;align=left;spacingLeft=6;fontStyle=5;overflow=hidden;html=1;whiteSpace=wrap;labelBackgroundColor=none;fontColor=#FFFFFF;fillColor=#000000;" parent="EIIiDots0ujYCdvbNFb_-30" vertex="1">
          <mxGeometry x="60" width="120" height="30" as="geometry">
            <mxRectangle width="120" height="30" as="alternateBounds" />
          </mxGeometry>
        </mxCell>
        <mxCell id="EIIiDots0ujYCdvbNFb_-33" value="" style="shape=tableRow;horizontal=0;startSize=0;swimlaneHead=0;swimlaneBody=0;collapsible=0;dropTarget=0;points=[[0,0.5],[1,0.5]];portConstraint=eastwest;top=0;left=0;right=0;bottom=1;html=1;labelBackgroundColor=none;fontColor=#FFFFFF;" parent="EIIiDots0ujYCdvbNFb_-29" vertex="1">
          <mxGeometry y="60" width="180" height="30" as="geometry" />
        </mxCell>
        <mxCell id="EIIiDots0ujYCdvbNFb_-34" value="" style="shape=partialRectangle;connectable=0;top=0;left=0;bottom=0;right=0;fontStyle=1;overflow=hidden;html=1;whiteSpace=wrap;labelBackgroundColor=none;fontColor=#FFFFFF;fillColor=#000000;" parent="EIIiDots0ujYCdvbNFb_-33" vertex="1">
          <mxGeometry width="60" height="30" as="geometry">
            <mxRectangle width="60" height="30" as="alternateBounds" />
          </mxGeometry>
        </mxCell>
        <mxCell id="EIIiDots0ujYCdvbNFb_-35" value="ComboName" style="shape=partialRectangle;connectable=0;top=0;left=0;bottom=0;right=0;align=left;spacingLeft=6;fontStyle=5;overflow=hidden;html=1;whiteSpace=wrap;labelBackgroundColor=none;fontColor=#FFFFFF;fillColor=#000000;" parent="EIIiDots0ujYCdvbNFb_-33" vertex="1">
          <mxGeometry x="60" width="120" height="30" as="geometry">
            <mxRectangle width="120" height="30" as="alternateBounds" />
          </mxGeometry>
        </mxCell>
        <mxCell id="EIIiDots0ujYCdvbNFb_-55" value="" style="shape=tableRow;horizontal=0;startSize=0;swimlaneHead=0;swimlaneBody=0;collapsible=0;dropTarget=0;points=[[0,0.5],[1,0.5]];portConstraint=eastwest;top=0;left=0;right=0;bottom=0;labelBackgroundColor=none;fontColor=#FFFFFF;" parent="EIIiDots0ujYCdvbNFb_-29" vertex="1">
          <mxGeometry y="90" width="180" height="30" as="geometry" />
        </mxCell>
        <mxCell id="EIIiDots0ujYCdvbNFb_-56" value="" style="shape=partialRectangle;connectable=0;top=0;left=0;bottom=0;right=0;editable=1;overflow=hidden;labelBackgroundColor=none;fontColor=#FFFFFF;fillColor=#000000;" parent="EIIiDots0ujYCdvbNFb_-55" vertex="1">
          <mxGeometry width="60" height="30" as="geometry">
            <mxRectangle width="60" height="30" as="alternateBounds" />
          </mxGeometry>
        </mxCell>
        <mxCell id="EIIiDots0ujYCdvbNFb_-57" value="CurrentPrice" style="shape=partialRectangle;connectable=0;top=0;left=0;bottom=0;right=0;align=left;spacingLeft=6;overflow=hidden;labelBackgroundColor=none;fontColor=#FFFFFF;fillColor=#000000;" parent="EIIiDots0ujYCdvbNFb_-55" vertex="1">
          <mxGeometry x="60" width="120" height="30" as="geometry">
            <mxRectangle width="120" height="30" as="alternateBounds" />
          </mxGeometry>
        </mxCell>
        <mxCell id="EIIiDots0ujYCdvbNFb_-58" value="" style="shape=tableRow;horizontal=0;startSize=0;swimlaneHead=0;swimlaneBody=0;collapsible=0;dropTarget=0;points=[[0,0.5],[1,0.5]];portConstraint=eastwest;top=0;left=0;right=0;bottom=0;labelBackgroundColor=none;fontColor=#FFFFFF;" parent="EIIiDots0ujYCdvbNFb_-29" vertex="1">
          <mxGeometry y="120" width="180" height="30" as="geometry" />
        </mxCell>
        <mxCell id="EIIiDots0ujYCdvbNFb_-59" value="" style="shape=partialRectangle;connectable=0;top=0;left=0;bottom=0;right=0;editable=1;overflow=hidden;labelBackgroundColor=none;fontColor=#FFFFFF;fillColor=#000000;" parent="EIIiDots0ujYCdvbNFb_-58" vertex="1">
          <mxGeometry width="60" height="30" as="geometry">
            <mxRectangle width="60" height="30" as="alternateBounds" />
          </mxGeometry>
        </mxCell>
        <mxCell id="EIIiDots0ujYCdvbNFb_-60" value="PreivousPrice" style="shape=partialRectangle;connectable=0;top=0;left=0;bottom=0;right=0;align=left;spacingLeft=6;overflow=hidden;labelBackgroundColor=none;fontColor=#FFFFFF;fillColor=#000000;" parent="EIIiDots0ujYCdvbNFb_-58" vertex="1">
          <mxGeometry x="60" width="120" height="30" as="geometry">
            <mxRectangle width="120" height="30" as="alternateBounds" />
          </mxGeometry>
        </mxCell>
        <mxCell id="EIIiDots0ujYCdvbNFb_-61" value="" style="shape=tableRow;horizontal=0;startSize=0;swimlaneHead=0;swimlaneBody=0;collapsible=0;dropTarget=0;points=[[0,0.5],[1,0.5]];portConstraint=eastwest;top=0;left=0;right=0;bottom=0;labelBackgroundColor=none;fontColor=#FFFFFF;" parent="EIIiDots0ujYCdvbNFb_-29" vertex="1">
          <mxGeometry y="150" width="180" height="30" as="geometry" />
        </mxCell>
        <mxCell id="EIIiDots0ujYCdvbNFb_-62" value="" style="shape=partialRectangle;connectable=0;top=0;left=0;bottom=0;right=0;editable=1;overflow=hidden;labelBackgroundColor=none;fontColor=#FFFFFF;fillColor=#000000;" parent="EIIiDots0ujYCdvbNFb_-61" vertex="1">
          <mxGeometry width="60" height="30" as="geometry">
            <mxRectangle width="60" height="30" as="alternateBounds" />
          </mxGeometry>
        </mxCell>
        <mxCell id="EIIiDots0ujYCdvbNFb_-63" value="ApplyDate" style="shape=partialRectangle;connectable=0;top=0;left=0;bottom=0;right=0;align=left;spacingLeft=6;overflow=hidden;labelBackgroundColor=none;fontColor=#FFFFFF;fillColor=#000000;" parent="EIIiDots0ujYCdvbNFb_-61" vertex="1">
          <mxGeometry x="60" width="120" height="30" as="geometry">
            <mxRectangle width="120" height="30" as="alternateBounds" />
          </mxGeometry>
        </mxCell>
        <mxCell id="EIIiDots0ujYCdvbNFb_-64" value="" style="shape=tableRow;horizontal=0;startSize=0;swimlaneHead=0;swimlaneBody=0;collapsible=0;dropTarget=0;points=[[0,0.5],[1,0.5]];portConstraint=eastwest;top=0;left=0;right=0;bottom=0;labelBackgroundColor=none;fontColor=#FFFFFF;" parent="EIIiDots0ujYCdvbNFb_-29" vertex="1">
          <mxGeometry y="180" width="180" height="30" as="geometry" />
        </mxCell>
        <mxCell id="EIIiDots0ujYCdvbNFb_-65" value="" style="shape=partialRectangle;connectable=0;top=0;left=0;bottom=0;right=0;editable=1;overflow=hidden;labelBackgroundColor=none;fontColor=#FFFFFF;fillColor=#000000;" parent="EIIiDots0ujYCdvbNFb_-64" vertex="1">
          <mxGeometry width="60" height="30" as="geometry">
            <mxRectangle width="60" height="30" as="alternateBounds" />
          </mxGeometry>
        </mxCell>
        <mxCell id="EIIiDots0ujYCdvbNFb_-66" value="ExpDate" style="shape=partialRectangle;connectable=0;top=0;left=0;bottom=0;right=0;align=left;spacingLeft=6;overflow=hidden;labelBackgroundColor=none;fontColor=#FFFFFF;fillColor=#000000;" parent="EIIiDots0ujYCdvbNFb_-64" vertex="1">
          <mxGeometry x="60" width="120" height="30" as="geometry">
            <mxRectangle width="120" height="30" as="alternateBounds" />
          </mxGeometry>
        </mxCell>
        <mxCell id="7WvzdSV_-rhE7XhePztb-1" value="" style="shape=tableRow;horizontal=0;startSize=0;swimlaneHead=0;swimlaneBody=0;collapsible=0;dropTarget=0;points=[[0,0.5],[1,0.5]];portConstraint=eastwest;top=0;left=0;right=0;bottom=0;labelBackgroundColor=none;fontColor=#FFFFFF;" parent="EIIiDots0ujYCdvbNFb_-29" vertex="1">
          <mxGeometry y="210" width="180" height="30" as="geometry" />
        </mxCell>
        <mxCell id="7WvzdSV_-rhE7XhePztb-2" value="" style="shape=partialRectangle;connectable=0;top=0;left=0;bottom=0;right=0;editable=1;overflow=hidden;labelBackgroundColor=none;fontColor=#FFFFFF;fillColor=#000000;" parent="7WvzdSV_-rhE7XhePztb-1" vertex="1">
          <mxGeometry width="60" height="30" as="geometry">
            <mxRectangle width="60" height="30" as="alternateBounds" />
          </mxGeometry>
        </mxCell>
        <mxCell id="7WvzdSV_-rhE7XhePztb-3" value="Image" style="shape=partialRectangle;connectable=0;top=0;left=0;bottom=0;right=0;align=left;spacingLeft=6;overflow=hidden;labelBackgroundColor=none;fontColor=#FFFFFF;fillColor=#000000;" parent="7WvzdSV_-rhE7XhePztb-1" vertex="1">
          <mxGeometry x="60" width="120" height="30" as="geometry">
            <mxRectangle width="120" height="30" as="alternateBounds" />
          </mxGeometry>
        </mxCell>
        <mxCell id="EIIiDots0ujYCdvbNFb_-42" value="ComboDetail" style="shape=table;startSize=30;container=1;collapsible=1;childLayout=tableLayout;fixedRows=1;rowLines=0;fontStyle=1;align=center;resizeLast=1;html=1;whiteSpace=wrap;labelBackgroundColor=none;fontColor=#FFFFFF;fillColor=#000000;strokeColor=#FFFFFF;" parent="1" vertex="1">
          <mxGeometry x="-43" y="1774" width="180" height="120" as="geometry" />
        </mxCell>
        <mxCell id="EIIiDots0ujYCdvbNFb_-43" value="" style="shape=tableRow;horizontal=0;startSize=0;swimlaneHead=0;swimlaneBody=0;collapsible=0;dropTarget=0;points=[[0,0.5],[1,0.5]];portConstraint=eastwest;top=0;left=0;right=0;bottom=0;html=1;labelBackgroundColor=none;fontColor=#FFFFFF;fillColor=#FFFFFF;strokeColor=#FFFFFF;" parent="EIIiDots0ujYCdvbNFb_-42" vertex="1">
          <mxGeometry y="30" width="180" height="30" as="geometry" />
        </mxCell>
        <mxCell id="EIIiDots0ujYCdvbNFb_-44" value="PK" style="shape=partialRectangle;connectable=0;top=0;left=0;bottom=0;right=0;fontStyle=1;overflow=hidden;html=1;whiteSpace=wrap;labelBackgroundColor=none;fontColor=#FFFFFF;fillColor=#000000;" parent="EIIiDots0ujYCdvbNFb_-43" vertex="1">
          <mxGeometry width="60" height="30" as="geometry">
            <mxRectangle width="60" height="30" as="alternateBounds" />
          </mxGeometry>
        </mxCell>
        <mxCell id="EIIiDots0ujYCdvbNFb_-45" value="Id" style="shape=partialRectangle;connectable=0;top=0;left=0;bottom=0;right=0;align=left;spacingLeft=6;fontStyle=5;overflow=hidden;html=1;whiteSpace=wrap;labelBackgroundColor=none;fontColor=#FFFFFF;fillColor=#000000;" parent="EIIiDots0ujYCdvbNFb_-43" vertex="1">
          <mxGeometry x="60" width="120" height="30" as="geometry">
            <mxRectangle width="120" height="30" as="alternateBounds" />
          </mxGeometry>
        </mxCell>
        <mxCell id="EIIiDots0ujYCdvbNFb_-49" value="" style="shape=tableRow;horizontal=0;startSize=0;swimlaneHead=0;swimlaneBody=0;collapsible=0;dropTarget=0;points=[[0,0.5],[1,0.5]];portConstraint=eastwest;top=0;left=0;right=0;bottom=0;html=1;labelBackgroundColor=none;fontColor=#FFFFFF;fillColor=#FFFFFF;strokeColor=#FFFFFF;" parent="EIIiDots0ujYCdvbNFb_-42" vertex="1">
          <mxGeometry y="60" width="180" height="30" as="geometry" />
        </mxCell>
        <mxCell id="EIIiDots0ujYCdvbNFb_-50" value="" style="shape=partialRectangle;connectable=0;top=0;left=0;bottom=0;right=0;editable=1;overflow=hidden;html=1;whiteSpace=wrap;labelBackgroundColor=none;fontColor=#FFFFFF;fillColor=#000000;" parent="EIIiDots0ujYCdvbNFb_-49" vertex="1">
          <mxGeometry width="60" height="30" as="geometry">
            <mxRectangle width="60" height="30" as="alternateBounds" />
          </mxGeometry>
        </mxCell>
        <mxCell id="EIIiDots0ujYCdvbNFb_-51" value="FoodCode" style="shape=partialRectangle;connectable=0;top=0;left=0;bottom=0;right=0;align=left;spacingLeft=6;overflow=hidden;html=1;whiteSpace=wrap;labelBackgroundColor=none;fontColor=#FFFFFF;fillColor=#000000;" parent="EIIiDots0ujYCdvbNFb_-49" vertex="1">
          <mxGeometry x="60" width="120" height="30" as="geometry">
            <mxRectangle width="120" height="30" as="alternateBounds" />
          </mxGeometry>
        </mxCell>
        <mxCell id="EIIiDots0ujYCdvbNFb_-52" value="" style="shape=tableRow;horizontal=0;startSize=0;swimlaneHead=0;swimlaneBody=0;collapsible=0;dropTarget=0;points=[[0,0.5],[1,0.5]];portConstraint=eastwest;top=0;left=0;right=0;bottom=0;html=1;labelBackgroundColor=none;fontColor=#FFFFFF;fillColor=#FFFFFF;strokeColor=#FFFFFF;" parent="EIIiDots0ujYCdvbNFb_-42" vertex="1">
          <mxGeometry y="90" width="180" height="30" as="geometry" />
        </mxCell>
        <mxCell id="EIIiDots0ujYCdvbNFb_-53" value="" style="shape=partialRectangle;connectable=0;top=0;left=0;bottom=0;right=0;editable=1;overflow=hidden;html=1;whiteSpace=wrap;labelBackgroundColor=none;fontColor=#FFFFFF;fillColor=#000000;" parent="EIIiDots0ujYCdvbNFb_-52" vertex="1">
          <mxGeometry width="60" height="30" as="geometry">
            <mxRectangle width="60" height="30" as="alternateBounds" />
          </mxGeometry>
        </mxCell>
        <mxCell id="EIIiDots0ujYCdvbNFb_-54" value="ComboCode" style="shape=partialRectangle;connectable=0;top=0;left=0;bottom=0;right=0;align=left;spacingLeft=6;overflow=hidden;html=1;whiteSpace=wrap;labelBackgroundColor=none;fontColor=#FFFFFF;fillColor=#000000;" parent="EIIiDots0ujYCdvbNFb_-52" vertex="1">
          <mxGeometry x="60" width="120" height="30" as="geometry">
            <mxRectangle width="120" height="30" as="alternateBounds" />
          </mxGeometry>
        </mxCell>
        <mxCell id="EIIiDots0ujYCdvbNFb_-89" value="" style="edgeStyle=entityRelationEdgeStyle;fontSize=12;html=1;endArrow=ERoneToMany;rounded=0;exitX=1;exitY=0.5;exitDx=0;exitDy=0;entryX=0;entryY=0.5;entryDx=0;entryDy=0;labelBackgroundColor=none;strokeColor=#F7F7F7;fontColor=#FFFFFF;" parent="1" source="EIIiDots0ujYCdvbNFb_-26" target="EIIiDots0ujYCdvbNFb_-43" edge="1">
          <mxGeometry width="100" height="100" relative="1" as="geometry">
            <mxPoint x="-180" y="2138" as="sourcePoint" />
            <mxPoint x="5" y="2169" as="targetPoint" />
          </mxGeometry>
        </mxCell>
        <mxCell id="EIIiDots0ujYCdvbNFb_-90" value="" style="edgeStyle=entityRelationEdgeStyle;fontSize=12;html=1;endArrow=ERoneToMany;rounded=0;exitX=1;exitY=0.5;exitDx=0;exitDy=0;entryX=0;entryY=0.5;entryDx=0;entryDy=0;labelBackgroundColor=none;strokeColor=#F7F7F7;fontColor=#FFFFFF;" parent="1" source="EIIiDots0ujYCdvbNFb_-61" target="EIIiDots0ujYCdvbNFb_-49" edge="1">
          <mxGeometry width="100" height="100" relative="1" as="geometry">
            <mxPoint x="56" y="2242" as="sourcePoint" />
            <mxPoint x="156" y="2142" as="targetPoint" />
          </mxGeometry>
        </mxCell>
        <mxCell id="XxUC8s4u14j_OIlH1GFp-1" value="ComboDetail" style="rounded=1;whiteSpace=wrap;html=1;strokeColor=#E8E8E8;fontColor=#FFFFFF;fillColor=#000000;" parent="1" vertex="1">
          <mxGeometry x="-724" y="675" width="120" height="60" as="geometry" />
        </mxCell>
        <mxCell id="XxUC8s4u14j_OIlH1GFp-2" value="Id" style="ellipse;whiteSpace=wrap;html=1;strokeColor=#E8E8E8;fontColor=#FFFFFF;fillColor=#000000;" parent="1" vertex="1">
          <mxGeometry x="-731" y="800" width="120" height="80" as="geometry" />
        </mxCell>
        <mxCell id="XxUC8s4u14j_OIlH1GFp-3" value="" style="endArrow=none;html=1;rounded=0;entryX=0.5;entryY=1;entryDx=0;entryDy=0;exitX=0.5;exitY=0;exitDx=0;exitDy=0;strokeColor=#F5F5F5;fontColor=#050505;" parent="1" source="XxUC8s4u14j_OIlH1GFp-2" target="XxUC8s4u14j_OIlH1GFp-1" edge="1">
          <mxGeometry width="50" height="50" relative="1" as="geometry">
            <mxPoint x="-758" y="794" as="sourcePoint" />
            <mxPoint x="-708" y="744" as="targetPoint" />
          </mxGeometry>
        </mxCell>
        <mxCell id="XxUC8s4u14j_OIlH1GFp-4" value="" style="endArrow=none;html=1;rounded=0;exitX=1;exitY=0.5;exitDx=0;exitDy=0;entryX=0;entryY=0.75;entryDx=0;entryDy=0;strokeColor=#F5F5F5;fontColor=#050505;" parent="1" source="XxUC8s4u14j_OIlH1GFp-1" target="sYMvWRUio1NoobQAcl4x-5" edge="1">
          <mxGeometry width="50" height="50" relative="1" as="geometry">
            <mxPoint x="-470" y="689" as="sourcePoint" />
            <mxPoint x="-420" y="639" as="targetPoint" />
          </mxGeometry>
        </mxCell>
        <mxCell id="XxUC8s4u14j_OIlH1GFp-6" value="Code" style="ellipse;whiteSpace=wrap;html=1;strokeColor=#E8E8E8;fontColor=#FFFFFF;fillColor=#000000;" parent="1" vertex="1">
          <mxGeometry x="-747" y="342" width="120" height="80" as="geometry" />
        </mxCell>
        <mxCell id="XxUC8s4u14j_OIlH1GFp-7" value="Combo" style="rounded=1;whiteSpace=wrap;html=1;strokeColor=#E8E8E8;fontColor=#FFFFFF;fillColor=#000000;" parent="1" vertex="1">
          <mxGeometry x="-867" y="509" width="120" height="60" as="geometry" />
        </mxCell>
        <mxCell id="XxUC8s4u14j_OIlH1GFp-8" value="" style="endArrow=none;html=1;rounded=0;exitX=0.75;exitY=0;exitDx=0;exitDy=0;entryX=0.5;entryY=1;entryDx=0;entryDy=0;strokeColor=#F5F5F5;fontColor=#050505;" parent="1" source="XxUC8s4u14j_OIlH1GFp-7" target="XxUC8s4u14j_OIlH1GFp-6" edge="1">
          <mxGeometry width="50" height="50" relative="1" as="geometry">
            <mxPoint x="-895" y="455" as="sourcePoint" />
            <mxPoint x="-845" y="405" as="targetPoint" />
          </mxGeometry>
        </mxCell>
        <mxCell id="XxUC8s4u14j_OIlH1GFp-10" value="Name" style="ellipse;whiteSpace=wrap;html=1;strokeColor=#E8E8E8;fontColor=#FFFFFF;fillColor=#000000;" parent="1" vertex="1">
          <mxGeometry x="-870" y="323" width="120" height="80" as="geometry" />
        </mxCell>
        <mxCell id="XxUC8s4u14j_OIlH1GFp-11" value="CurrentPrice" style="ellipse;whiteSpace=wrap;html=1;strokeColor=#E8E8E8;fontColor=#FFFFFF;fillColor=#000000;" parent="1" vertex="1">
          <mxGeometry x="-1106" y="408" width="120" height="80" as="geometry" />
        </mxCell>
        <mxCell id="XxUC8s4u14j_OIlH1GFp-12" value="PreviousPrice" style="ellipse;whiteSpace=wrap;html=1;strokeColor=#E8E8E8;fontColor=#FFFFFF;fillColor=#000000;" parent="1" vertex="1">
          <mxGeometry x="-1116" y="517" width="120" height="80" as="geometry" />
        </mxCell>
        <mxCell id="XxUC8s4u14j_OIlH1GFp-13" value="ApplyDate" style="ellipse;whiteSpace=wrap;html=1;strokeColor=#E8E8E8;fontColor=#FFFFFF;fillColor=#000000;" parent="1" vertex="1">
          <mxGeometry x="-1038" y="640" width="120" height="80" as="geometry" />
        </mxCell>
        <mxCell id="XxUC8s4u14j_OIlH1GFp-14" value="ExpireDate" style="ellipse;whiteSpace=wrap;html=1;strokeColor=#E8E8E8;fontColor=#FFFFFF;fillColor=#000000;" parent="1" vertex="1">
          <mxGeometry x="-895" y="636" width="120" height="80" as="geometry" />
        </mxCell>
        <mxCell id="XxUC8s4u14j_OIlH1GFp-15" value="Image" style="ellipse;whiteSpace=wrap;html=1;strokeColor=#F5F5F5;fontColor=#FAFAFA;fillColor=#0F0F0F;" parent="1" vertex="1">
          <mxGeometry x="-1033" y="330" width="120" height="80" as="geometry" />
        </mxCell>
        <mxCell id="XxUC8s4u14j_OIlH1GFp-16" value="" style="endArrow=none;html=1;rounded=0;entryX=0.5;entryY=1;entryDx=0;entryDy=0;exitX=0.5;exitY=0;exitDx=0;exitDy=0;strokeColor=#F5F5F5;fontColor=#050505;" parent="1" source="XxUC8s4u14j_OIlH1GFp-7" target="XxUC8s4u14j_OIlH1GFp-10" edge="1">
          <mxGeometry width="50" height="50" relative="1" as="geometry">
            <mxPoint x="-895" y="483" as="sourcePoint" />
            <mxPoint x="-845" y="433" as="targetPoint" />
          </mxGeometry>
        </mxCell>
        <mxCell id="XxUC8s4u14j_OIlH1GFp-17" value="" style="endArrow=none;html=1;rounded=0;exitX=0.25;exitY=0;exitDx=0;exitDy=0;entryX=1;entryY=1;entryDx=0;entryDy=0;strokeColor=#F5F5F5;fontColor=#050505;" parent="1" source="XxUC8s4u14j_OIlH1GFp-7" target="XxUC8s4u14j_OIlH1GFp-15" edge="1">
          <mxGeometry width="50" height="50" relative="1" as="geometry">
            <mxPoint x="-899" y="479" as="sourcePoint" />
            <mxPoint x="-849" y="429" as="targetPoint" />
          </mxGeometry>
        </mxCell>
        <mxCell id="XxUC8s4u14j_OIlH1GFp-18" value="" style="endArrow=none;html=1;rounded=0;entryX=0;entryY=0.25;entryDx=0;entryDy=0;exitX=1;exitY=0.5;exitDx=0;exitDy=0;strokeColor=#F5F5F5;fontColor=#050505;" parent="1" source="XxUC8s4u14j_OIlH1GFp-11" target="XxUC8s4u14j_OIlH1GFp-7" edge="1">
          <mxGeometry width="50" height="50" relative="1" as="geometry">
            <mxPoint x="-930" y="531" as="sourcePoint" />
            <mxPoint x="-880" y="481" as="targetPoint" />
          </mxGeometry>
        </mxCell>
        <mxCell id="XxUC8s4u14j_OIlH1GFp-19" value="" style="endArrow=none;html=1;rounded=0;entryX=0;entryY=0.75;entryDx=0;entryDy=0;exitX=0.5;exitY=0;exitDx=0;exitDy=0;strokeColor=#F5F5F5;fontColor=#050505;" parent="1" source="XxUC8s4u14j_OIlH1GFp-13" target="XxUC8s4u14j_OIlH1GFp-7" edge="1">
          <mxGeometry width="50" height="50" relative="1" as="geometry">
            <mxPoint x="-944" y="612" as="sourcePoint" />
            <mxPoint x="-894" y="562" as="targetPoint" />
          </mxGeometry>
        </mxCell>
        <mxCell id="XxUC8s4u14j_OIlH1GFp-20" value="" style="endArrow=none;html=1;rounded=0;entryX=0.25;entryY=1;entryDx=0;entryDy=0;exitX=0.5;exitY=0;exitDx=0;exitDy=0;strokeColor=#F5F5F5;fontColor=#050505;" parent="1" source="XxUC8s4u14j_OIlH1GFp-14" target="XxUC8s4u14j_OIlH1GFp-7" edge="1">
          <mxGeometry width="50" height="50" relative="1" as="geometry">
            <mxPoint x="-858" y="638" as="sourcePoint" />
            <mxPoint x="-808" y="588" as="targetPoint" />
          </mxGeometry>
        </mxCell>
        <mxCell id="XxUC8s4u14j_OIlH1GFp-21" value="" style="endArrow=none;html=1;rounded=0;exitX=1;exitY=1;exitDx=0;exitDy=0;entryX=0.5;entryY=0;entryDx=0;entryDy=0;strokeColor=#F5F5F5;fontColor=#050505;" parent="1" source="XxUC8s4u14j_OIlH1GFp-7" target="XxUC8s4u14j_OIlH1GFp-1" edge="1">
          <mxGeometry width="50" height="50" relative="1" as="geometry">
            <mxPoint x="-688" y="592" as="sourcePoint" />
            <mxPoint x="-638" y="542" as="targetPoint" />
          </mxGeometry>
        </mxCell>
        <mxCell id="62aCdoZqx1ojKnXyHQOF-2" value="Database" style="shape=cylinder3;whiteSpace=wrap;html=1;boundedLbl=1;backgroundOutline=1;size=15;fillColor=#000000;strokeColor=#FFFFFF;fontColor=#FFFFFF;" vertex="1" parent="1">
          <mxGeometry x="1399" y="-812" width="60" height="80" as="geometry" />
        </mxCell>
        <mxCell id="62aCdoZqx1ojKnXyHQOF-3" value="" style="endArrow=classic;html=1;rounded=0;exitX=0;exitY=0;exitDx=0;exitDy=27.5;exitPerimeter=0;entryX=1;entryY=0.25;entryDx=0;entryDy=0;fontColor=#FFFFFF;strokeColor=#FFFFFF;" edge="1" parent="1" source="62aCdoZqx1ojKnXyHQOF-2" target="rFDq4xrJXjMDubLh5kAa-9">
          <mxGeometry width="50" height="50" relative="1" as="geometry">
            <mxPoint x="1358" y="-815" as="sourcePoint" />
            <mxPoint x="1408" y="-865" as="targetPoint" />
          </mxGeometry>
        </mxCell>
        <mxCell id="62aCdoZqx1ojKnXyHQOF-4" value="Return" style="text;html=1;align=center;verticalAlign=middle;resizable=0;points=[];autosize=1;strokeColor=none;fillColor=none;labelBackgroundColor=none;labelBorderColor=none;fontColor=#FFFFFF;" vertex="1" parent="1">
          <mxGeometry x="1331" y="-815" width="54" height="26" as="geometry" />
        </mxCell>
      </root>
    </mxGraphModel>
  </diagram>
</mxfile>
